<svg width="20" height="13" viewBox="0 0 20 13" fill="none" xmlns="http://www.w3.org/2000/svg">
<path fill-rule="evenodd" clip-rule="evenodd" d="M0.833252 6.58333C2.27492 2.925 5.83325 0.333333 9.99992 0.333333C14.1666 0.333333 17.7249 2.925 19.1666 6.58333C17.7249 10.2417 14.1666 12.8333 9.99992 12.8333C5.83325 12.8333 2.27492 10.2417 0.833252 6.58333ZM17.3499 6.58333C15.9749 3.775 13.1583 2 9.99992 2C6.84159 2 4.02492 3.775 2.64992 6.58333C4.02492 9.39167 6.84159 11.1667 9.99992 11.1667C13.1583 11.1667 15.9749 9.39167 17.3499 6.58333ZM9.99992 4.5C11.1499 4.5 12.0833 5.43333 12.0833 6.58333C12.0833 7.73333 11.1499 8.66667 9.99992 8.66667C8.84992 8.66667 7.91659 7.73333 7.91659 6.58333C7.91659 5.43333 8.84992 4.5 9.99992 4.5ZM6.24992 6.58333C6.24992 4.51667 7.93325 2.83333 9.99992 2.83333C12.0666 2.83333 13.7499 4.51667 13.7499 6.58333C13.7499 8.65 12.0666 10.3333 9.99992 10.3333C7.93325 10.3333 6.24992 8.65 6.24992 6.58333Z" fill="#B6B4BA"/>
</svg>
