<svg width="17" height="13" viewBox="0 0 17 13" fill="none" xmlns="http://www.w3.org/2000/svg">
<path fill-rule="evenodd" clip-rule="evenodd" d="M3.87779 0.755943L3.28853 0.166687L1.91649 1.53881L1.37779 1.00002L0.788531 1.58928L1.91649 2.71724L3.87779 0.755943ZM0.666504 11.2946C0.666504 10.6113 1.22484 10.0446 1.9165 10.0446C2.60817 10.0446 3.1665 10.6113 3.1665 11.2946C3.1665 11.978 2.59984 12.5446 1.9165 12.5446C1.23317 12.5446 0.666504 11.978 0.666504 11.2946ZM3.28853 5.16669L3.87779 5.75594L1.91649 7.71724L0.788531 6.58928L1.37779 6.00002L1.91649 6.53881L3.28853 5.16669ZM16.9165 12.128H5.24983V10.4613H16.9165V12.128ZM5.24983 7.12798H16.9165V5.46131H5.24983V7.12798ZM5.24983 2.12798V0.461311H16.9165V2.12798H5.24983Z" fill="#84818A"/>
</svg>
