<svg width="20" height="24" viewBox="0 0 20 24" fill="none" xmlns="http://www.w3.org/2000/svg">
<path d="M17.071 17.2126C18.9477 15.3143 20.0002 12.7525 20.0002 10.0831C20.0002 7.41371 18.9477 4.85196 17.071 2.95361C16.1465 2.01784 15.0454 1.27488 13.8316 0.76781C12.6178 0.260738 11.3155 -0.000366211 10 -0.000366211C8.68456 -0.000366211 7.38219 0.260738 6.1684 0.76781C4.9546 1.27488 3.85353 2.01784 2.92901 2.95361C1.04795 4.85633 -0.00485331 7.42539 1.68214e-05 10.101C0.00488695 12.7765 1.06704 15.3417 2.95501 17.2376L6.53901 20.5766C7.45687 21.4841 8.69459 21.9946 9.98532 21.9979C11.2761 22.0013 12.5164 21.4973 13.439 20.5946L17.071 17.2126ZM11.342 14.6486C10.925 14.8551 10.4659 14.9626 10.0005 14.9626C9.53514 14.9626 9.07605 14.8551 8.65901 14.6486L6.65901 13.6486C6.15943 13.4008 5.73924 13.018 5.44603 12.5436C5.15283 12.0693 4.99832 11.5223 5.00001 10.9646V7.99961C4.99804 7.44188 5.15231 6.89474 5.44534 6.42019C5.73838 5.94565 6.15847 5.56265 6.65801 5.31461L8.65801 4.31461C9.07485 4.10742 9.53402 3.9996 9.99951 3.9996C10.465 3.9996 10.9242 4.10742 11.341 4.31461L13.341 5.31461C13.8407 5.56251 14.261 5.94545 14.5542 6.42C14.8475 6.89456 15.0019 7.44177 15 7.99961V10.9656C15.0018 11.5232 14.8474 12.0701 14.5544 12.5444C14.2614 13.0188 13.8414 13.4016 13.342 13.6496L11.342 14.6486ZM12.949 7.69361C12.9818 7.79233 12.999 7.89558 13 7.99961V10.9656C13.0008 11.1516 12.9494 11.3341 12.8516 11.4923C12.7539 11.6505 12.6137 11.7781 12.447 11.8606L10.447 12.8606C10.3079 12.9297 10.1548 12.9656 9.99951 12.9656C9.84424 12.9656 9.69107 12.9297 9.55201 12.8606L7.55201 11.8606C7.38537 11.7779 7.24529 11.6501 7.1477 11.4917C7.05012 11.3333 6.99895 11.1506 7.00001 10.9646V7.99961C7.0016 7.89759 7.0188 7.79642 7.05101 7.69961L9.23101 8.78961C9.46978 8.90896 9.73306 8.97109 10 8.97109C10.267 8.97109 10.5302 8.90896 10.769 8.78961L12.949 7.69361ZM18 22.9996C18 23.2648 17.8947 23.5192 17.7071 23.7067C17.5196 23.8943 17.2652 23.9996 17 23.9996H3.00001C2.73479 23.9996 2.48044 23.8943 2.2929 23.7067C2.10536 23.5192 2.00001 23.2648 2.00001 22.9996C2.00001 22.7344 2.10536 22.48 2.2929 22.2925C2.48044 22.105 2.73479 21.9996 3.00001 21.9996H17C17.2652 21.9996 17.5196 22.105 17.7071 22.2925C17.8947 22.48 18 22.7344 18 22.9996Z" fill="#2BA84A"/>
</svg>
