<svg width="56" height="39" viewBox="0 0 56 39" fill="none" xmlns="http://www.w3.org/2000/svg">
<g clip-path="url(#clip0_264_21351)">
<path d="M28.0001 33.0671H27.9999L19.4101 24.6014L16.5688 21.8007C15.5677 20.814 15.0672 19.5111 15.0672 18.2069C15.0672 16.9026 15.5677 15.5998 16.5688 14.6131C17.5693 13.6267 18.8914 13.1331 20.215 13.1331C21.5386 13.1331 22.8604 13.6267 23.8612 14.6131L28.0001 17.4747V16.2571H27.9999C-2.55547 -7.7337 0.438884 17.851 28.0001 38.1815V33.0668V33.0671Z" fill="#2BA84A"/>
<path d="M28.0002 33.0671L36.5899 24.6014L39.4312 21.8007C40.4323 20.814 40.9329 19.5111 40.9329 18.2069C40.9329 16.9026 40.4323 15.5998 39.4312 14.6131C38.4307 13.6267 37.1086 13.1331 35.785 13.1331C34.4615 13.1331 33.1396 13.6267 32.1388 14.6131L27.9999 17.4747V16.2571C58.5552 -7.7337 55.5609 17.851 27.9999 38.1815V33.0668L28.0002 33.0671Z" fill="#FCBF49"/>
<path fill-rule="evenodd" clip-rule="evenodd" d="M3.90814 7.7039C6.0668 7.7039 7.81656 5.9793 7.81656 3.85195C7.81656 1.7246 6.06651 0 3.90814 0C1.74976 0 0 1.7246 0 3.85195C0 5.9793 1.74976 7.7039 3.90814 7.7039Z" fill="#FCBF49"/>
<path fill-rule="evenodd" clip-rule="evenodd" d="M48.1837 3.85195C48.1837 5.9793 49.9335 7.7039 52.0921 7.7039C54.2508 7.7039 56.0003 5.9793 56.0003 3.85195C56.0003 1.7246 54.2502 0 52.0921 0C49.934 0 48.1837 1.7246 48.1837 3.85195Z" fill="#2BA84A"/>
</g>
<defs>
<clipPath id="clip0_264_21351">
<rect width="56" height="38.1818" fill="white"/>
</clipPath>
</defs>
</svg>
