<?xml version="1.0" standalone="no"?>
<!DOCTYPE svg PUBLIC "-//W3C//DTD SVG 20010904//EN"
 "http://www.w3.org/TR/2001/REC-SVG-20010904/DTD/svg10.dtd">
<svg version="1.0" xmlns="http://www.w3.org/2000/svg"
 width="512.000000pt" height="512.000000pt" viewBox="0 0 512.000000 512.000000"
 preserveAspectRatio="xMidYMid meet">

<g transform="translate(0.000000,512.000000) scale(0.100000,-0.100000)"
fill="#000000" stroke="none">
<path d="M582 4416 c-114 -28 -194 -104 -234 -224 l-23 -67 -3 -1565 c-2
-1065 1 -1581 8 -1616 35 -167 144 -284 333 -357 l82 -32 1924 -3 1924 -2 43
21 c55 26 87 64 113 134 46 123 46 115 46 1715 l0 1515 -21 46 c-48 102 -128
158 -243 168 l-65 6 -17 58 c-33 111 -96 174 -204 202 -52 13 -263 15 -1835
14 -1400 -1 -1786 -3 -1828 -13z m3655 -259 c17 -17 18 -99 24 -1605 5 -1427
7 -1595 22 -1667 9 -44 17 -81 17 -83 0 -1 -795 -1 -1767 0 l-1768 3 -56 23
c-78 31 -139 74 -169 118 l-25 38 0 1557 0 1558 21 28 c11 15 32 34 45 40 19
10 409 12 1831 10 1720 -2 1808 -3 1825 -20z m310 -258 c15 -5 31 -16 35 -22
13 -20 10 -2873 -3 -2964 -15 -108 -52 -145 -84 -83 -8 16 -19 71 -25 122 -6
56 -10 662 -10 1526 l0 1432 29 0 c16 0 42 -5 58 -11z"/>
<path d="M908 4004 c-65 -20 -113 -70 -135 -142 -16 -51 -18 -105 -18 -532 0
-536 2 -557 70 -625 65 -65 82 -66 637 -63 482 3 494 3 533 24 51 28 69 48 97
109 l23 50 0 505 0 505 -23 50 c-28 61 -46 81 -97 109 -39 21 -50 21 -540 23
-418 2 -508 0 -547 -13z"/>
<path d="M2560 3980 c-27 -27 -40 -63 -40 -110 0 -47 13 -83 40 -110 20 -20
29 -20 740 -20 711 0 720 0 740 20 54 54 54 166 0 220 -20 20 -29 20 -740 20
-711 0 -720 0 -740 -20z"/>
<path d="M2571 3424 c-66 -47 -66 -191 0 -238 21 -14 93 -16 729 -16 783 0
737 -4 766 66 28 66 10 155 -37 188 -21 14 -93 16 -729 16 -636 0 -708 -2
-729 -16z"/>
<path d="M2560 2850 c-27 -27 -40 -63 -40 -110 0 -47 13 -83 40 -110 20 -20
29 -20 740 -20 711 0 720 0 740 20 54 54 54 166 0 220 -20 20 -29 20 -740 20
-711 0 -720 0 -740 -20z"/>
<path d="M793 2325 c-17 -7 -39 -27 -47 -44 -31 -60 -12 -176 32 -200 28 -15
3165 -16 3193 -1 48 26 67 136 34 199 -33 65 70 61 -1632 61 -1296 -1 -1553
-3 -1580 -15z"/>
<path d="M776 1768 c-56 -56 -56 -159 -1 -214 l24 -24 636 0 636 0 24 24 c56
57 57 156 0 213 l-33 33 -627 0 -627 0 -32 -32z"/>
<path d="M2490 1750 c-39 -41 -48 -105 -25 -166 30 -78 -14 -74 774 -74 l699
0 30 25 c65 55 61 176 -8 232 -11 9 -183 12 -728 13 l-714 0 -28 -30z"/>
<path d="M775 1206 c-52 -52 -55 -154 -4 -210 l27 -31 637 0 637 0 28 32 c40
45 48 107 22 166 -11 25 -29 50 -40 56 -14 8 -217 11 -652 11 l-631 0 -24 -24z"/>
<path d="M2524 1210 c-78 -31 -98 -168 -34 -232 l28 -28 717 0 716 0 24 24
c52 52 53 153 1 213 l-24 28 -704 2 c-386 1 -713 -2 -724 -7z"/>
</g>
</svg>
