<svg width="18" height="24" viewBox="0 0 18 24" fill="none" xmlns="http://www.w3.org/2000/svg">
<path d="M13 0.3C13.7058 0.541978 14.348 0.939823 14.879 1.464L16.535 3.122C17.0598 3.65229 17.458 4.29426 17.7 5H13V0.3ZM18 7V19C17.9984 20.3256 17.4711 21.5964 16.5338 22.5338C15.5964 23.4711 14.3256 23.9984 13 24H5C3.6744 23.9984 2.40356 23.4711 1.46622 22.5338C0.528882 21.5964 0.00158786 20.3256 0 19V5C0.00158786 3.6744 0.528882 2.40356 1.46622 1.46622C2.40356 0.528882 3.6744 0.00158786 5 0L11 0V5C11 5.53043 11.2107 6.03914 11.5858 6.41421C11.9609 6.78929 12.4696 7 13 7H18ZM13.808 17.413C13.7308 17.3062 13.6334 17.2158 13.5212 17.1468C13.4089 17.0778 13.2842 17.0317 13.1541 17.0111C13.024 16.9905 12.8912 16.9957 12.7631 17.0266C12.6351 17.0575 12.5144 17.1134 12.408 17.191C11.7361 17.6587 10.9513 17.938 10.135 18C9.81517 17.9913 9.50889 17.869 9.271 17.655C8.74912 17.2409 8.10513 17.0106 7.439 17C6.32967 17.1043 5.27306 17.5226 4.393 18.206C4.28378 18.2839 4.19134 18.3829 4.12118 18.4972C4.05102 18.6115 4.00457 18.7388 3.98461 18.8714C3.96465 19.0041 3.97157 19.1394 4.00497 19.2693C4.03837 19.3992 4.09757 19.5211 4.17903 19.6276C4.26049 19.7342 4.36256 19.8233 4.47916 19.8896C4.59576 19.9559 4.72451 19.998 4.85774 20.0136C4.99097 20.0291 5.12596 20.0176 5.25468 19.9799C5.3834 19.9422 5.50322 19.879 5.607 19.794C6.13962 19.3769 6.77043 19.1035 7.439 19C7.685 19 7.81 19.078 8.139 19.3C8.70882 19.7501 9.41288 19.9965 10.139 20C11.3818 19.9432 12.5818 19.529 13.595 18.807C13.8075 18.6499 13.9491 18.4151 13.989 18.1539C14.029 17.8927 13.9639 17.6264 13.808 17.413ZM14 14C14 13.7348 13.8946 13.4804 13.7071 13.2929C13.5196 13.1054 13.2652 13 13 13H5C4.73478 13 4.48043 13.1054 4.29289 13.2929C4.10536 13.4804 4 13.7348 4 14C4 14.2652 4.10536 14.5196 4.29289 14.7071C4.48043 14.8946 4.73478 15 5 15H13C13.2652 15 13.5196 14.8946 13.7071 14.7071C13.8946 14.5196 14 14.2652 14 14ZM14 10C14 9.73478 13.8946 9.48043 13.7071 9.29289C13.5196 9.10536 13.2652 9 13 9H5C4.73478 9 4.48043 9.10536 4.29289 9.29289C4.10536 9.48043 4 9.73478 4 10C4 10.2652 4.10536 10.5196 4.29289 10.7071C4.48043 10.8946 4.73478 11 5 11H13C13.2652 11 13.5196 10.8946 13.7071 10.7071C13.8946 10.5196 14 10.2652 14 10Z" fill="#2BA84A"/>
</svg>
