<svg width="16" height="14" viewBox="0 0 16 14" fill="none" xmlns="http://www.w3.org/2000/svg">
<path d="M7.99989 9.66555C9.4721 9.66555 10.6656 8.4721 10.6656 6.99989C10.6656 5.52769 9.4721 4.33423 7.99989 4.33423C6.52769 4.33423 5.33423 5.52769 5.33423 6.99989C5.33423 8.4721 6.52769 9.66555 7.99989 9.66555Z" fill="#2BA84A"/>
<path d="M15.5112 5.28001C14.4776 3.59663 12.1265 0.772339 7.99998 0.772339C3.87352 0.772339 1.52239 3.59663 0.488772 5.28001C-0.162924 6.33409 -0.162924 7.66597 0.488772 8.72008C1.52239 10.4035 3.87352 13.2277 7.99998 13.2277C12.1265 13.2277 14.4776 10.4035 15.5112 8.72008C16.1629 7.66597 16.1629 6.33409 15.5112 5.28001ZM7.99998 10.9985C5.79168 10.9985 4.00147 9.20833 4.00147 7.00003C4.00147 4.79172 5.79168 3.00151 7.99998 3.00151C10.2083 3.00151 11.9985 4.79172 11.9985 7.00003C11.9963 9.20743 10.2074 10.9963 7.99998 10.9985Z" fill="#2BA84A"/>
</svg>
