<svg width="18" height="20" viewBox="0 0 18 20" fill="none" xmlns="http://www.w3.org/2000/svg">
<path d="M6.66553 0.883301H9.47073V1.93525H6.66553V0.883301Z" fill="#2BA84A"/>
<path d="M12.2734 9.88329C11.3972 9.88329 11.3972 8.94824 10.5209 8.94824C9.64463 8.94824 9.64459 9.88329 8.76832 9.88329C7.89204 9.88329 7.8918 8.94824 7.01528 8.94824C6.13876 8.94824 6.13925 9.88329 5.26322 9.88329C4.38642 9.88329 4.38642 8.94824 3.50962 8.94824C2.63219 8.94824 2.63219 9.88329 1.75479 9.88329C0.877396 9.88329 0.877396 8.94824 0 8.94824V19.8184H13.6753V9.01115C13.1302 9.21877 13.0132 9.88329 12.2734 9.88329Z" fill="#2BA84A"/>
<path d="M15.7808 9.88329C15.0399 9.88329 14.9229 9.21849 14.3767 9.01101V19.8184H17.5356V8.94824C16.6582 8.94824 16.6582 9.88329 15.7808 9.88329Z" fill="#2BA84A"/>
<path d="M5.26311 9.18188C5.37679 9.18188 5.4141 9.16372 5.62712 8.93618C5.78961 8.72199 5.99947 8.5483 6.24027 8.42872C6.48106 8.30913 6.74627 8.2469 7.01512 8.24688C7.28398 8.24687 7.54919 8.30907 7.79 8.42862C8.03082 8.54817 8.2407 8.72183 8.40322 8.93601C8.61476 9.16186 8.6539 9.18146 8.76575 9.18167C8.64174 8.45881 8.6786 7.71751 8.87372 7.01052C9.10901 6.04305 9.64929 5.17693 10.4147 4.54015C10.064 4.14908 9.61789 3.85562 9.11991 3.68842V2.63647H7.01601V3.68842C6.40336 3.89264 5.87049 4.28444 5.49289 4.80834C5.11529 5.33223 4.9121 5.96165 4.91211 6.60745V8.95066C5.10223 9.15253 5.14704 9.18188 5.26311 9.18188Z" fill="#2BA84A"/>
<path d="M15.415 8.93588C15.6198 9.15437 15.6608 9.18193 15.7807 9.18193C15.9006 9.18193 15.942 9.15437 16.1471 8.93574C16.2188 8.85929 16.3023 8.77219 16.3992 8.686C16.7043 7.12361 16.1604 5.69587 15.1097 5.41444C14.7319 5.32227 14.3334 5.37154 13.9894 5.55294C14.0466 5.19581 14.2202 4.86757 14.4832 4.61934C14.616 4.51873 14.7689 4.44773 14.9314 4.41111C15.094 4.37448 15.2625 4.37309 15.4256 4.40702C15.4716 4.41409 15.5186 4.41192 15.5637 4.40065C15.6089 4.38939 15.6514 4.36924 15.6887 4.34138C15.726 4.31353 15.7573 4.27853 15.781 4.23842C15.8046 4.19831 15.82 4.1539 15.8263 4.10778C15.8326 4.06166 15.8296 4.01474 15.8176 3.96978C15.8055 3.92481 15.7847 3.88269 15.7562 3.84587C15.7277 3.80906 15.6922 3.77828 15.6517 3.75534C15.6112 3.73239 15.5665 3.71774 15.5203 3.71224C15.2616 3.66422 14.9957 3.6719 14.7402 3.73479C14.4848 3.79767 14.2457 3.91431 14.0389 4.07692C13.6585 4.41871 13.4018 4.8767 13.3088 5.37955C13.1014 5.04514 12.7779 4.79909 12.4002 4.68859C11.2779 4.38784 10.0023 5.50883 9.55123 7.19223C9.42007 7.67301 9.3707 8.17241 9.40518 8.66956C9.70994 8.3921 10.1089 8.241 10.5209 8.24692C10.7892 8.25015 11.0533 8.3138 11.2936 8.43314C11.5339 8.55247 11.7441 8.72443 11.9088 8.93623C12.1222 9.16376 12.1595 9.18193 12.2735 9.18193C12.3875 9.18193 12.4248 9.16376 12.6382 8.93623C12.8007 8.72204 13.0107 8.54836 13.2515 8.42878C13.4923 8.3092 13.7576 8.24696 14.0265 8.24693C14.2954 8.24689 14.5606 8.30907 14.8015 8.42859C15.0424 8.5481 15.2523 8.72173 15.4149 8.93588H15.415Z" fill="#2BA84A"/>
<path d="M1.38891 8.93576C1.59369 9.15425 1.63479 9.18181 1.75464 9.18181C1.87449 9.18181 1.91594 9.15425 2.12104 8.93561C2.28589 8.72388 2.49633 8.55201 2.73673 8.43276C2.97712 8.31351 3.24129 8.24995 3.50961 8.2468C3.7514 8.24391 3.99085 8.29436 4.21091 8.39456V6.6074C4.21302 5.99111 4.36647 5.38477 4.65778 4.84167C3.49832 1.87833 2.05539 -0.0638164 1.04454 0.207026C-0.208577 0.542808 -0.340527 4.15145 0.704656 8.39607C0.966295 8.52878 1.1989 8.71224 1.38891 8.93576ZM3.3319 4.93133C3.41999 4.96113 3.49264 5.0247 3.53386 5.10805C3.57509 5.19141 3.58151 5.28772 3.55172 5.37582L2.7412 7.77093C2.72683 7.81503 2.70386 7.85584 2.67362 7.891C2.64338 7.92616 2.60646 7.95497 2.565 7.97577C2.52355 7.99656 2.47838 8.00892 2.43211 8.01214C2.38584 8.01536 2.3394 8.00937 2.29547 7.99451C2.25153 7.97966 2.21098 7.95623 2.17616 7.9256C2.14134 7.89496 2.11294 7.85772 2.09261 7.81604C2.07229 7.77435 2.06043 7.72904 2.05773 7.68274C2.05503 7.63645 2.06154 7.59007 2.07689 7.5463L2.88742 5.15115C2.91727 5.0631 2.98084 4.9905 3.06418 4.94928C3.14751 4.90806 3.2438 4.90159 3.3319 4.9313V4.93133ZM1.26019 4.84872L2.07019 2.45357C2.10074 2.36645 2.16441 2.2949 2.24739 2.25443C2.33037 2.21397 2.42595 2.20786 2.51341 2.23743C2.60086 2.267 2.67313 2.32987 2.71452 2.41238C2.75591 2.4949 2.76309 2.59042 2.7345 2.6782L1.92467 5.07342C1.91031 5.11751 1.88734 5.15833 1.8571 5.19349C1.82685 5.22865 1.78993 5.25746 1.74848 5.27825C1.70702 5.29905 1.66185 5.31141 1.61559 5.31463C1.56932 5.31784 1.52288 5.31185 1.47894 5.297C1.43501 5.28214 1.39446 5.25872 1.35964 5.22808C1.32482 5.19744 1.29642 5.16021 1.27609 5.11852C1.25576 5.07683 1.24391 5.03153 1.24121 4.98523C1.23851 4.93893 1.24502 4.89256 1.26037 4.84879L1.26019 4.84872Z" fill="#2BA84A"/>
</svg>
