<svg width="48" height="32" viewBox="0 0 48 32" fill="none" xmlns="http://www.w3.org/2000/svg">
<path d="M38 0.000610352H10C7.34881 0.00378607 4.80712 1.05837 2.93244 2.93305C1.05776 4.80773 0.00317572 7.34942 0 10.0006L0 22.0006C0.00317572 24.6518 1.05776 27.1935 2.93244 29.0682C4.80712 30.9428 7.34881 31.9974 10 32.0006H38C40.6512 31.9974 43.1929 30.9428 45.0676 29.0682C46.9422 27.1935 47.9968 24.6518 48 22.0006V10.0006C47.9968 7.34942 46.9422 4.80773 45.0676 2.93305C43.1929 1.05837 40.6512 0.00378607 38 0.000610352V0.000610352ZM8 26.0006C7.60444 26.0006 7.21776 25.8833 6.88886 25.6636C6.55996 25.4438 6.30362 25.1314 6.15224 24.766C6.00087 24.4005 5.96126 23.9984 6.03843 23.6104C6.1156 23.2225 6.30608 22.8661 6.58579 22.5864C6.86549 22.3067 7.22186 22.1162 7.60982 22.039C7.99778 21.9619 8.39991 22.0015 8.76537 22.1529C9.13082 22.3042 9.44318 22.5606 9.66294 22.8895C9.8827 23.2184 10 23.605 10 24.0006C10 24.531 9.78929 25.0398 9.41421 25.4148C9.03914 25.7899 8.53043 26.0006 8 26.0006ZM8 10.0006C7.60444 10.0006 7.21776 9.88331 6.88886 9.66355C6.55996 9.44379 6.30362 9.13143 6.15224 8.76598C6.00087 8.40053 5.96126 7.99839 6.03843 7.61043C6.1156 7.22247 6.30608 6.8661 6.58579 6.5864C6.86549 6.30669 7.22186 6.11621 7.60982 6.03904C7.99778 5.96187 8.39991 6.00148 8.76537 6.15285C9.13082 6.30423 9.44318 6.56057 9.66294 6.88947C9.8827 7.21837 10 7.60505 10 8.00061C10 8.53104 9.78929 9.03975 9.41421 9.41482C9.03914 9.7899 8.53043 10.0006 8 10.0006ZM24 24.0006C22.4177 24.0006 20.871 23.5314 19.5554 22.6524C18.2398 21.7733 17.2145 20.5239 16.609 19.0621C16.0035 17.6003 15.845 15.9917 16.1537 14.4399C16.4624 12.888 17.2243 11.4626 18.3431 10.3438C19.462 9.22494 20.8874 8.46301 22.4393 8.15433C23.9911 7.84565 25.5997 8.00407 27.0615 8.60957C28.5233 9.21507 29.7727 10.2405 30.6518 11.556C31.5308 12.8716 32 14.4184 32 16.0006C32 18.1223 31.1571 20.1572 29.6569 21.6575C28.1566 23.1578 26.1217 24.0006 24 24.0006ZM40 26.0006C39.6044 26.0006 39.2178 25.8833 38.8889 25.6636C38.56 25.4438 38.3036 25.1314 38.1522 24.766C38.0009 24.4005 37.9613 23.9984 38.0384 23.6104C38.1156 23.2225 38.3061 22.8661 38.5858 22.5864C38.8655 22.3067 39.2219 22.1162 39.6098 22.039C39.9978 21.9619 40.3999 22.0015 40.7654 22.1529C41.1308 22.3042 41.4432 22.5606 41.6629 22.8895C41.8827 23.2184 42 23.605 42 24.0006C42 24.531 41.7893 25.0398 41.4142 25.4148C41.0391 25.7899 40.5304 26.0006 40 26.0006ZM40 10.0006C39.6044 10.0006 39.2178 9.88331 38.8889 9.66355C38.56 9.44379 38.3036 9.13143 38.1522 8.76598C38.0009 8.40053 37.9613 7.99839 38.0384 7.61043C38.1156 7.22247 38.3061 6.8661 38.5858 6.5864C38.8655 6.30669 39.2219 6.11621 39.6098 6.03904C39.9978 5.96187 40.3999 6.00148 40.7654 6.15285C41.1308 6.30423 41.4432 6.56057 41.6629 6.88947C41.8827 7.21837 42 7.60505 42 8.00061C42 8.53104 41.7893 9.03975 41.4142 9.41482C41.0391 9.7899 40.5304 10.0006 40 10.0006ZM28 16.0006C28 16.7917 27.7654 17.5651 27.3259 18.2229C26.8864 18.8807 26.2616 19.3934 25.5307 19.6961C24.7998 19.9989 23.9956 20.0781 23.2196 19.9238C22.4437 19.7694 21.731 19.3884 21.1716 18.829C20.6122 18.2696 20.2312 17.5569 20.0769 16.781C19.9225 16.005 20.0017 15.2008 20.3045 14.4699C20.6072 13.739 21.1199 13.1143 21.7777 12.6747C22.4355 12.2352 23.2089 12.0006 24 12.0006C25.0609 12.0006 26.0783 12.422 26.8284 13.1722C27.5786 13.9223 28 14.9397 28 16.0006Z" fill="#2BA84A"/>
</svg>
