<svg width="16" height="14" viewBox="0 0 16 14" fill="none" xmlns="http://www.w3.org/2000/svg">
<path d="M1.3335 5.75C0.641829 5.75 0.0834961 6.30833 0.0834961 7C0.0834961 7.69167 0.641829 8.25 1.3335 8.25C2.02516 8.25 2.5835 7.69167 2.5835 7C2.5835 6.30833 2.02516 5.75 1.3335 5.75ZM1.3335 0.75C0.641829 0.75 0.0834961 1.30833 0.0834961 2C0.0834961 2.69167 0.641829 3.25 1.3335 3.25C2.02516 3.25 2.5835 2.69167 2.5835 2C2.5835 1.30833 2.02516 0.75 1.3335 0.75ZM1.3335 10.75C0.641829 10.75 0.0834961 11.3167 0.0834961 12C0.0834961 12.6833 0.650163 13.25 1.3335 13.25C2.01683 13.25 2.5835 12.6833 2.5835 12C2.5835 11.3167 2.02516 10.75 1.3335 10.75ZM3.8335 12.8333H15.5002V11.1667H3.8335V12.8333ZM3.8335 7.83333H15.5002V6.16667H3.8335V7.83333ZM3.8335 1.16667V2.83333H15.5002V1.16667H3.8335Z" fill="#84818A"/>
</svg>
