<svg width="20" height="20" viewBox="0 0 20 20" fill="none" xmlns="http://www.w3.org/2000/svg">
<path d="M12.9999 8.99168C13.8083 8.43334 14.3749 7.51668 14.3749 6.66668C14.3749 4.78334 12.9166 3.33334 11.0416 3.33334H5.83325V15H11.6999C13.4416 15 14.7916 13.5833 14.7916 11.8417C14.7916 10.575 14.0749 9.49168 12.9999 8.99168ZM8.33325 5.41668H10.8333C11.5249 5.41668 12.0833 5.97501 12.0833 6.66668C12.0833 7.35834 11.5249 7.91668 10.8333 7.91668H8.33325V5.41668ZM11.2499 12.9167H8.33325V10.4167H11.2499C11.9416 10.4167 12.4999 10.975 12.4999 11.6667C12.4999 12.3583 11.9416 12.9167 11.2499 12.9167Z" fill="#84818A"/>
</svg>
