<svg width="44" height="44" viewBox="0 0 44 44" fill="none" xmlns="http://www.w3.org/2000/svg">
<circle cx="22" cy="22" r="21.5" stroke="#2BA84A"/>
<g clip-path="url(#clip0_264_12797)">
<path d="M19.1466 10.8572H22.5752V12.1429H19.1466V10.8572Z" fill="#2BA84A"/>
<path d="M26.0008 21.8572C24.9298 21.8572 24.9298 20.7143 23.8588 20.7143C22.7878 20.7143 22.7878 21.8572 21.7168 21.8572C20.6458 21.8572 20.6455 20.7143 19.5742 20.7143C18.5029 20.7143 18.5035 21.8572 17.4328 21.8572C16.3611 21.8572 16.3611 20.7143 15.2895 20.7143C14.2171 20.7143 14.2171 21.8572 13.1447 21.8572C12.0723 21.8572 12.0723 20.7143 11 20.7143V34.0001H27.7143V20.7912C27.048 21.045 26.905 21.8572 26.0008 21.8572Z" fill="#2BA84A"/>
<path d="M30.2876 21.8572C29.382 21.8572 29.239 21.0446 28.5714 20.7911V34.0001H32.4323V20.7143C31.3599 20.7143 31.3599 21.8572 30.2876 21.8572Z" fill="#2BA84A"/>
<path d="M17.4327 21C17.5717 21 17.6173 20.9778 17.8776 20.6997C18.0762 20.4379 18.3327 20.2256 18.627 20.0795C18.9213 19.9333 19.2455 19.8572 19.5741 19.8572C19.9027 19.8572 20.2268 19.9332 20.5212 20.0793C20.8155 20.2255 21.072 20.4377 21.2706 20.6995C21.5292 20.9755 21.577 20.9995 21.7137 20.9997C21.5622 20.1162 21.6072 19.2102 21.8457 18.3461C22.1333 17.1636 22.7936 16.105 23.7292 15.3268C23.3005 14.8488 22.7552 14.4901 22.1466 14.2858V13H19.5752V14.2858C18.8264 14.5354 18.1751 15.0142 17.7136 15.6545C17.2521 16.2949 17.0037 17.0642 17.0037 17.8535V20.7174C17.2361 20.9641 17.2909 21 17.4327 21Z" fill="#2BA84A"/>
<path d="M29.8404 20.6993C30.0907 20.9663 30.141 21 30.2874 21C30.4339 21 30.4846 20.9663 30.7353 20.6991C30.8229 20.6057 30.9249 20.4992 31.0434 20.3939C31.4163 18.4843 30.7515 16.7393 29.4673 16.3953C29.0056 16.2826 28.5185 16.3429 28.0981 16.5646C28.168 16.1281 28.3801 15.7269 28.7016 15.4235C28.864 15.3005 29.0508 15.2138 29.2494 15.169C29.4481 15.1242 29.654 15.1225 29.8534 15.164C29.9097 15.1726 29.9671 15.17 30.0223 15.1562C30.0775 15.1424 30.1294 15.1178 30.1749 15.0838C30.2205 15.0497 30.2589 15.007 30.2878 14.9579C30.3166 14.9089 30.3355 14.8546 30.3431 14.7983C30.3508 14.7419 30.3472 14.6846 30.3325 14.6296C30.3178 14.5746 30.2923 14.5232 30.2575 14.4782C30.2227 14.4332 30.1792 14.3955 30.1297 14.3675C30.0802 14.3395 30.0256 14.3216 29.9691 14.3148C29.653 14.2561 29.328 14.2655 29.0158 14.3424C28.7036 14.4192 28.4113 14.5618 28.1586 14.7605C27.6936 15.1783 27.3799 15.7381 27.2663 16.3526C27.0128 15.9439 26.6173 15.6432 26.1557 15.5081C24.784 15.1406 23.225 16.5107 22.6736 18.5682C22.5133 19.1558 22.453 19.7661 22.4951 20.3738C22.8676 20.0347 23.3552 19.85 23.8589 19.8572C24.1867 19.8612 24.5095 19.939 24.8032 20.0848C25.0969 20.2307 25.3539 20.4408 25.5551 20.6997C25.8159 20.9778 25.8615 21 26.0009 21C26.1402 21 26.1858 20.9778 26.4466 20.6997C26.6453 20.4379 26.9018 20.2256 27.1962 20.0795C27.4906 19.9333 27.8147 19.8573 28.1434 19.8572C28.472 19.8572 28.7962 19.9332 29.0906 20.0793C29.385 20.2253 29.6416 20.4375 29.8404 20.6993H29.8404Z" fill="#2BA84A"/>
<path d="M12.6975 20.6992C12.9478 20.9663 12.998 20.9999 13.1445 20.9999C13.291 20.9999 13.3417 20.9663 13.5923 20.699C13.7938 20.4403 14.051 20.2302 14.3448 20.0844C14.6386 19.9387 14.9615 19.861 15.2895 19.8572C15.585 19.8536 15.8777 19.9153 16.1466 20.0378V17.8535C16.1492 17.1002 16.3367 16.3591 16.6928 15.6953C15.2757 12.0735 13.5121 9.69974 12.2766 10.0308C10.745 10.4412 10.5837 14.8517 11.8612 20.0396C12.181 20.2018 12.4653 20.426 12.6975 20.6992ZM15.0723 15.8049C15.1799 15.8413 15.2687 15.919 15.3191 16.0209C15.3695 16.1228 15.3774 16.2405 15.3409 16.3482L14.3503 19.2755C14.3327 19.3294 14.3047 19.3793 14.2677 19.4223C14.2307 19.4653 14.1856 19.5005 14.135 19.5259C14.0843 19.5513 14.0291 19.5664 13.9725 19.5704C13.916 19.5743 13.8592 19.567 13.8055 19.5488C13.7518 19.5306 13.7023 19.502 13.6597 19.4646C13.6171 19.4271 13.5824 19.3816 13.5576 19.3307C13.5327 19.2797 13.5183 19.2243 13.515 19.1678C13.5117 19.1112 13.5196 19.0545 13.5384 19.001L14.529 16.0736C14.5655 15.966 14.6432 15.8772 14.7451 15.8269C14.8469 15.7765 14.9646 15.7686 15.0723 15.8049V15.8049ZM12.5402 15.7039L13.5302 12.7765C13.5675 12.6701 13.6453 12.5826 13.7468 12.5332C13.8482 12.4837 13.965 12.4762 14.0719 12.5124C14.1788 12.5485 14.2671 12.6253 14.3177 12.7262C14.3683 12.8271 14.3771 12.9438 14.3421 13.0511L13.3523 15.9786C13.3348 16.0325 13.3067 16.0824 13.2697 16.1253C13.2328 16.1683 13.1876 16.2035 13.137 16.2289C13.0863 16.2543 13.0311 16.2695 12.9746 16.2734C12.918 16.2773 12.8612 16.27 12.8075 16.2518C12.7538 16.2337 12.7043 16.2051 12.6617 16.1676C12.6192 16.1302 12.5845 16.0847 12.5596 16.0337C12.5348 15.9828 12.5203 15.9274 12.517 15.8708C12.5137 15.8142 12.5216 15.7575 12.5404 15.704L12.5402 15.7039Z" fill="#2BA84A"/>
</g>
<defs>
<clipPath id="clip0_264_12797">
<rect width="24" height="24" fill="white" transform="translate(10 10)"/>
</clipPath>
</defs>
</svg>
