<svg width="343" height="242" viewBox="0 0 343 242" fill="none" xmlns="http://www.w3.org/2000/svg">
<g clip-path="url(#clip0_264_12185)">
<path d="M258.984 150.6C256.547 165.828 254.339 177.459 251.191 186.907C249.32 192.529 247.117 197.379 244.339 201.752C239.604 209.201 220.864 218.715 215.191 223.343C211.115 226.671 211.271 233.994 212.279 242H185.262C186.212 233.202 187.49 220.749 187.719 215.718C187.719 215.496 187.724 215.277 187.729 215.06C188.076 202.824 196.965 194.525 208.741 190.646C224.161 188.178 231.044 183.358 233.523 180.774C236.209 177.976 245.063 166.559 245.063 166.559C246.011 166.007 247.733 131.555 259.593 139.437C260.216 139.79 259.776 144.666 258.984 150.6ZM124.862 242C125.87 233.994 126.026 226.671 121.95 223.343C121.183 222.718 120.205 221.982 119.071 221.163C111.808 215.909 98.1588 207.185 92.8026 201.752C81.9518 180.494 82.0423 174.888 78.1572 150.6C77.3651 144.666 76.925 139.79 77.5486 139.437C89.4078 131.555 91.1303 166.007 92.0784 166.559C92.0784 166.559 100.932 177.976 103.618 180.774C106.098 183.358 112.98 188.178 128.4 190.646C139.963 194.455 148.746 202.526 149.385 214.404C149.408 214.838 149.42 215.274 149.423 215.718C149.652 220.749 150.929 233.202 151.877 242H124.862Z" fill="#F9CBCB"/>
<path d="M256.619 123.753C256.619 149.231 245.964 172.218 228.878 188.481C222.476 194.571 215.175 199.72 207.186 203.703H207.179C195.258 209.647 181.819 212.989 167.601 212.989C126.179 212.989 91.3751 184.63 81.4374 146.224C79.5793 139.046 78.5911 131.511 78.5911 123.753C78.5911 110.533 81.458 97.9893 86.601 86.7012C88.9161 81.6261 91.7005 76.7795 94.9175 72.2251C99.5287 65.7049 104.987 59.8301 111.147 54.756C112.086 53.9875 113.04 53.2362 114.007 52.5026C119.393 48.4215 125.225 44.9691 131.391 42.2123C142.45 37.2659 154.705 34.5172 167.601 34.5172C178.304 34.5172 188.57 36.4078 198.069 39.8821C205.084 42.4425 211.682 45.861 217.743 50.005C241.217 66.0788 256.619 93.1127 256.619 123.753Z" fill="#63D9F7"/>
<path d="M216.087 66.6929C213.756 63.7768 215.391 63.079 213.102 61.0699C210.805 59.0608 210.687 56.9678 211.543 56.2703C212.406 55.5725 211.216 53.975 211.132 52.6145C211.049 51.2611 208.084 50.6891 207.165 48.9031C206.24 47.1171 209.002 49.3357 210.513 49.3357C212.016 49.3357 211.585 47.5497 212.934 48.8403C214.09 49.9495 215.454 50.9473 217.743 50.0055C211.682 45.8615 205.084 42.443 198.069 39.8826C198.536 40.5173 199.058 41.1173 199.607 41.5778C201.695 43.3011 205.815 45.0243 205.564 46.0079C205.321 46.9986 200.227 45.2126 199.058 46.3218C197.888 47.4241 198.445 48.3518 195.063 47.9195C191.687 47.4869 188.619 47.1171 187.512 47.7312C186.405 48.3521 184.686 47.3684 183.399 49.6427C182.112 51.917 180.942 51.1217 180.33 50.4451C179.718 49.7685 176.05 46.8731 174.658 48.8406C173.266 50.8149 172.369 54.3451 170.323 54.7497C168.269 55.1613 162.702 50.0756 161.603 49.8242C160.496 49.5802 160.559 54.1984 159.264 54.6937C157.977 55.182 154.476 54.938 155.583 52.6566C156.689 50.3823 151.317 56.2287 150.259 55.0008C149.194 53.7658 151.811 46.1337 150.259 46.6291C148.707 47.1174 146.494 50.0753 144.162 50.0753C141.824 50.0753 137.53 49.2102 137.036 48.4708C136.549 47.7314 134.377 49.6637 132.575 50.3196C130.773 50.9752 127.029 51.4915 128.01 49.887C128.991 48.2893 130.341 49.7685 132.248 48.7778C134.148 47.7942 135.442 45.6384 135.073 44.7803C134.705 43.9151 137.53 44.2292 135.874 43.1826C134.211 42.1362 132.554 43.9151 131.573 43.9151C131.149 43.9151 131.295 43.1407 131.392 42.2128C125.226 44.9696 119.394 48.422 114.008 52.5031C114.92 52.8729 116.005 52.8588 117.223 52.0426C121.155 49.4194 123.487 48.0659 124.099 48.5124C124.718 48.9659 120.007 51.2611 120.619 51.6309C121.239 52.0007 122.749 51.1008 122.631 51.9589C122.506 52.824 124.057 52.1681 123.897 52.9077C123.73 53.6473 122.22 53.2775 121.566 53.0264C120.912 52.7822 119.067 52.6566 118.741 52.9498C118.435 53.2218 113.298 58.0217 111.148 54.7567C104.988 59.8308 99.5298 65.7056 94.9187 72.2259C95.1207 73.7119 95.6425 74.7026 96.8812 73.4049C99.6443 70.5097 102.776 68.0471 102.894 68.912C103.02 69.7701 100.417 71.821 101.363 72.0096C102.303 72.1908 102.818 70.0214 103.493 70.0423C104.168 70.0562 104.495 70.5725 104.001 71.1238C103.514 71.6819 101.544 73.1818 101.829 74.1026C102.122 75.0235 100.869 80.6046 99.2128 79.5582C97.5566 78.5118 99.0594 77.591 98.5655 76.3003C98.0784 75.0026 96.6031 74.326 95.4337 75.3444C94.2717 76.356 92.1491 79.928 92.8864 81.1C93.6244 82.2651 92.4551 82.886 93.2555 83.7441C94.0557 84.6092 88.2031 94.3971 86.7277 87.0927C86.6928 86.9392 86.6581 86.8066 86.6022 86.702C81.4593 97.9898 78.5923 110.533 78.5923 123.754C78.5923 131.512 79.5805 139.046 81.4386 146.225C82.608 144.425 89.7134 133.214 86.4423 130.835C82.879 128.254 81.0348 116.799 82.5104 110.276C83.9857 103.753 85.454 95.1924 86.9296 95.3182C88.405 95.4438 84.7235 102.336 84.5352 107.939C84.3544 113.541 81.4034 124.124 84.9041 126.035C88.4047 127.947 93.4014 124.724 93.8887 122.505C94.3829 120.294 98.3495 119.973 96.8812 116.68C95.4056 113.387 95.7124 111.727 95.865 111.015C96.0179 110.31 92.4272 112.675 91.8149 111.385C91.1953 110.094 93.165 109.264 91.9678 107.541C90.771 105.811 92.6218 98.6598 93.7705 100.92C94.9117 103.18 92.6221 105.601 94.1739 107.896C95.733 110.192 96.9159 108.427 96.9994 111.587C97.0828 114.747 103.305 116.924 104.495 117.461C105.678 117.991 104.864 126.035 108.788 129.356C112.72 132.684 109.324 133.382 111.203 139.946C113.089 146.511 112.519 151.437 114.725 153.655C116.938 155.867 116.284 152.378 117.759 152.344C119.227 152.302 118.371 155.992 118.942 157.227C119.52 158.455 121.935 160.262 122.178 158.371C122.422 156.488 120.703 152.546 119.597 150.865C118.49 149.183 120.459 148.318 120.216 146.679C119.965 145.039 119.109 141.795 121.315 142.081C123.529 142.368 129.013 138.593 129.013 136.954C129.013 135.307 132.659 136.87 132.986 134.121C133.314 131.373 136.382 135.349 139.535 133.996C142.688 132.642 140.642 137.031 143.3 139.989C145.966 142.947 143.384 144.3 143.585 145.326C143.794 146.351 146.822 146.881 148.297 144.914C149.773 142.947 150.545 146.923 150.427 148.158C150.301 149.386 152.062 153.655 150.837 158.581C149.605 163.506 154.435 163.423 154.846 166.045C155.256 168.676 159.021 171.341 159.39 172.631C159.759 173.929 156.564 171.529 155.396 171.033C154.233 170.538 146.369 164.259 145.513 164.629C144.65 164.999 147.775 168.955 150.67 170.601C154.352 172.694 152.598 175.177 154.971 176.698C158.527 178.973 160.372 182.726 162.279 183.591C164.179 184.456 167.087 183.94 166.433 182.014C165.779 180.082 167.658 178.275 165.411 177.703C163.156 177.131 161.972 177.131 161.52 175.157C161.068 173.19 163.567 174.208 162.397 172.387C160.866 169.987 161.562 167.525 160.33 166.541C159.105 165.557 156.196 163.876 155.709 162.229C155.215 160.59 154.366 160.471 154.436 158.978C154.484 157.89 152.557 158.902 153.211 156.237C153.983 153.062 154.602 153.614 154.602 151.353C154.602 149.1 155.994 151.765 155.953 152.916C155.911 154.067 157.714 152.999 158.409 154.144C159.105 155.295 159.885 154.437 160.045 156.236C160.212 158.043 163.567 157.799 163.323 160.792C163.072 163.792 167.046 159.648 167.13 158.741C167.206 157.841 173.636 156.648 172.119 151.806C170.609 146.965 169.029 145.053 166.879 143.825C164.736 142.597 166.204 139.765 166.942 139.332C167.679 138.9 169.336 136.13 170.811 136.375C172.287 136.626 169.523 140.811 170.874 141.914C172.223 143.023 175.544 141.886 174.68 139.653C173.817 137.421 175.293 136.681 176.587 136.5C177.875 136.319 180.144 135.328 181.619 133.912C183.094 132.495 188.07 132.188 190.095 126.956C192.121 121.724 194.946 121.047 193.345 115.94C191.752 110.834 188.056 110.827 188.209 108.629C188.349 106.676 192.531 106.382 191.425 104.352C190.318 102.329 187.882 104.708 187.027 104.303C186.164 103.906 185.342 101.331 186.08 99.3571C186.818 97.3898 188.864 98.6596 189.191 100.634C189.518 102.601 191.564 98.2131 194.104 99.3989C196.644 100.592 193.617 101.492 194.104 103.055C194.598 104.61 197.646 103.508 197.277 106.892C196.909 110.275 198.509 109.536 199.428 109.536C200.347 109.536 203.235 108.001 202.128 104.98C201.022 101.966 200.862 101.206 199.303 99.65C197.751 98.0874 200.862 93.5736 200.04 92.0946C199.219 90.6227 209.867 94.7248 208.148 86.4368C206.429 78.1418 205.079 77.0046 205.385 75.2186C205.692 73.4326 208.788 79.0974 208.977 80.2973C209.157 81.4972 210.667 82.4531 210.667 83.2833C210.667 84.1134 210.932 81.7554 210.069 80.1161C209.213 78.4697 207.494 73.4258 205.121 71.2072C202.74 68.9957 202.044 71.7025 200.493 71.905C198.934 72.1142 197.131 70.8795 197.709 69.1981C198.28 67.5167 199.512 66.0377 199.344 63.8612C199.184 61.6845 202.699 62.7521 203.395 61.566C204.091 60.3732 205.935 63.6591 206.756 61.566C207.57 59.4732 205.893 58.0779 206.22 57.3383C206.548 56.5987 208.19 59.229 207.863 56.3965C207.536 53.5641 209.95 58.6081 209.909 60.415C209.867 62.2219 211.503 65.2147 213.103 67.2311C214.697 69.2402 217.313 69.8543 217.606 72.1145C217.89 74.3668 218.419 69.609 216.087 66.6929ZM108.544 77.6527C107.131 78.5736 106.456 80.4851 106.15 82.3269C105.844 84.1756 104.063 85.0965 103.756 86.394C103.45 87.6846 101.056 91.2567 102.893 91.5007C104.737 91.7449 101.236 93.9005 99.7612 91.0053C99.42 90.3355 98.9678 87.1333 101.786 84.9778C104.612 82.8219 103.199 79.4385 105.169 77.3454C107.131 75.2526 108.301 74.8201 108.975 75.1896C109.651 75.5599 109.957 76.7251 108.544 77.6527ZM170.482 76.2574C170.893 77.3248 163.196 81.0153 163.767 78.9643C163.767 78.9643 169.174 76.418 169.007 74.4505C168.847 72.4832 170.239 71.332 170.977 71.6599C171.715 71.9879 170.072 75.1901 170.482 76.2574Z" fill="#058C87"/>
<path d="M211.185 90.8823C210.689 90.7946 212.474 88.4815 212.045 87.7122C211.615 86.9428 210.264 84.9113 210.786 84.6345C211.308 84.3574 212.413 85.4346 213.334 85.7424C214.255 86.0502 216.251 86.5427 216.036 87.3121C215.821 88.0817 215.054 87.6506 215.054 88.5125C215.054 89.3744 214.041 89.4666 213.027 89.4359C212.014 89.4049 211.707 90.9746 211.185 90.8823ZM212.413 92.4521C213.36 91.9288 215.76 93.3755 215.575 95.4375C215.391 97.4995 215.944 99.7464 216.405 101.316C216.865 102.886 216.128 103.963 215.698 103.901C215.269 103.84 213.918 105.379 213.058 105.04C212.198 104.702 213.549 107.133 213.365 107.718C213.181 108.303 210.847 107.349 210.54 107.102C210.233 106.856 208.667 106.21 208.33 106.579C207.992 106.948 205.382 108.61 206.303 108.826C207.225 109.041 207.869 107.225 209.005 107.533C210.141 107.841 206.979 109.719 206.887 111.073C206.795 112.427 204.922 114.674 204.676 112.765C204.43 110.857 202.711 111.384 203.018 110.013C203.325 108.641 205.505 107.379 205.904 105.748C206.303 104.117 210.141 104.548 210.54 103.655C210.939 102.763 210.049 101.131 212.321 100.269C214.593 99.4076 213.365 95.5603 212.812 95.2217C212.259 94.8834 211.455 92.9812 212.413 92.4521ZM193.549 130.758C193.175 131.994 192.438 132.865 191.902 132.702C191.367 132.539 191.236 131.405 191.609 130.169C191.983 128.932 192.719 128.062 193.255 128.224C193.791 128.387 193.922 129.521 193.549 130.758ZM164.465 185.905C164.465 185.905 166.839 183.772 168.764 184.756C170.687 185.741 173.635 185.454 173.963 184.88C174.29 184.305 178.056 185.249 179.898 184.839C181.741 184.428 178.752 185.742 179.898 186.07C181.045 186.398 182.113 187.424 180.515 187.588C178.916 187.752 165.038 187.137 164.465 185.905ZM183.322 187.093C183.322 187.381 183.044 187.614 182.7 187.614C182.357 187.614 182.079 187.381 182.079 187.093C182.079 186.806 182.357 186.572 182.7 186.572C183.044 186.572 183.322 186.806 183.322 187.093ZM184.135 186.572C184.135 186.572 185.548 186.993 186.08 186.572C186.612 186.152 188.7 185.775 189.171 186.055C189.642 186.336 189.253 187.194 188.577 187.093C187.902 186.993 186.86 187.137 186.757 187.383C186.653 187.629 184.729 187.476 184.361 187.614C183.992 187.752 183.583 186.972 184.135 186.572ZM189.068 188.286C188.996 188.111 190.061 186.849 191.412 187.342C192.763 187.834 192.471 188.542 192.21 188.511C191.949 188.48 191.12 188.065 190.921 188.173C190.721 188.281 189.334 188.922 189.068 188.286ZM194.308 188.563C194.308 188.563 196.478 187.621 197.358 186.055C198.238 184.49 202.496 183.443 203.192 183.525C203.888 183.607 200.899 184.674 200.367 185.536C199.835 186.398 194.534 189.313 194.308 188.563ZM190.399 186.377C190.357 186.262 191.566 185.372 192.2 185.598C192.835 185.823 194.411 185.475 194.595 185.167C194.779 184.859 196.519 184.489 197.195 184.592C197.87 184.695 196.048 185.026 195.803 185.476C195.557 185.926 193.04 186.726 192.814 186.572C192.589 186.418 190.563 186.829 190.399 186.377ZM173.205 178.108C173.135 177.666 171.486 176.569 171.424 175.646C171.363 174.722 170.073 172.876 171.424 172.506C172.775 172.137 175.391 172.51 175.477 171.337C175.661 168.834 179.094 170.631 179.223 169.428C179.428 167.52 183.767 166.474 184.565 165.058C185.364 163.642 185.731 161.795 186.622 161.795C187.513 161.795 187.267 165.673 188.127 166.105C188.987 166.535 188.802 167.028 188.434 168.074C188.066 169.121 188.252 170.475 188.742 171.029C189.232 171.583 190.629 173.061 189.378 173.368C188.127 173.676 187.022 174.23 187.329 175.584C187.636 176.938 185.487 177.185 185.548 178.108C185.609 179.031 185.118 181.063 184.136 180.816C183.153 180.57 182.6 180.55 182.079 180.837C181.557 181.124 180.636 179.647 179.162 179.955C177.688 180.263 176.368 180.386 175.846 179.739C175.324 179.093 173.881 182.356 173.205 178.108ZM190.748 182.633C190.261 182.674 190.43 179.616 190.123 179.309C189.816 179.001 189.232 178.324 189.754 177.185C190.276 176.046 191.412 174.292 191.473 173.368C191.535 172.445 195.035 171.399 196.355 171.522C197.675 171.645 200.776 169.367 201.053 169.521C201.329 169.675 199.886 171.922 199.211 172.199C198.535 172.476 192.916 172.783 192.947 173.276C192.978 173.768 192.077 175.677 194.308 175.123C196.539 174.568 198.105 174.507 197.522 174.876C196.938 175.246 194.523 176.077 195.316 177.185C196.109 178.293 197 180.847 196.57 181.524C196.14 182.202 194.206 181.794 194.144 180.874C194.083 179.955 192.947 177.985 192.517 178.293C192.088 178.601 192.571 182.479 190.748 182.633ZM193.316 151.085C193.316 151.085 193.101 148.623 192.548 148.284C191.996 147.945 191.351 146.037 191.903 145.114C192.456 144.19 194.667 142.251 194.636 141.359C194.605 140.466 196.877 143.021 195.987 144.283C195.097 145.545 194.237 147.237 194.82 148.13C195.404 149.023 198.228 148.222 198.413 148.838C198.597 149.453 198.904 151.054 200.101 151.085C201.299 151.115 201.391 152.808 201.268 153.886C201.145 154.963 199.712 154.655 199.508 153.886C199.303 153.116 198.607 151.598 198.034 151.311C197.461 151.023 195.046 148.93 194.882 149.669C194.718 150.408 193.387 153.937 193.316 151.085ZM187.062 160.051C186.983 159.723 190.755 155.127 191.692 155.209C192.63 155.291 191.279 156.03 191.074 156.44C190.87 156.851 187.39 161.406 187.062 160.051Z" fill="#058C87"/>
<path d="M197.507 157.856C196.202 158.072 195.772 157.441 196.017 156.948C196.263 156.456 196.724 155.932 195.925 155.394C195.127 154.855 195.389 153.949 195.542 153.716C195.895 153.178 197.046 153.054 197.369 154.116C197.691 155.178 198.474 155.44 199.165 155.378C199.856 155.317 200.326 155.605 199.963 156.378C199.721 156.894 198.722 157.655 197.507 157.856ZM196.017 162.042C195.455 162.155 195.13 160.797 195.495 160.302C196.585 158.826 197.859 159.08 198.689 159.272C200.089 159.595 201.396 158.362 201.308 157.425C201.206 156.333 202.169 155.635 202.68 156.04C203.417 156.625 202.71 158.364 203.202 159.211C203.575 159.854 203.026 160.305 202.496 160.303C201.657 160.298 201.309 160.811 201.636 161.334C201.858 161.689 202.526 162.812 201.974 163.12C201.464 163.404 199.224 162.75 199.263 162.165C199.303 161.581 199.42 161.143 198.965 160.719C198.32 160.119 196.631 160.596 196.324 161.119C196.138 161.437 196.325 161.98 196.017 162.042ZM228.878 188.481C222.476 194.571 215.175 199.72 207.186 203.703H207.179C206.581 203.41 205.379 203.34 203.727 203.592C201.299 203.962 196.536 208.041 194.311 207.596C189.065 206.548 186.176 209.563 183.865 209.319C181.555 209.068 179.259 211.447 179.529 208.454C179.939 203.921 176.784 205.712 177.936 202.733C179.08 199.776 188.639 198.882 189.885 198.792C192.432 198.603 190.215 194.113 194.576 194.236C197.361 194.315 201.18 188.871 203.296 190.852C205.996 193.371 206.453 187.325 207.165 186.101C208.391 183.995 210.763 183.436 213.102 183.988C215.433 184.539 216.307 181.928 216.804 182.292C217.704 182.95 214.65 187.091 215.576 187.496C216.494 187.9 220.395 186.227 221.133 183.521C221.87 180.814 225.399 179.083 225.705 180.876C226.011 182.662 225.399 184.755 225.956 185.585C226.617 186.583 229.386 185.585 228.878 188.481ZM218.462 179.032C217.988 178.522 221.102 176.631 220.427 175.646C219.751 174.661 218.786 174.169 218.409 174.23C218.032 174.292 215.842 175.482 214.961 174.225C214.611 173.725 212.935 175.205 212.505 174.225C212.075 173.245 212.72 172.599 210.878 172.507C209.036 172.414 209.834 171.46 210.233 171.46C210.632 171.46 212.29 170.752 212.259 169.921C212.229 169.09 214.071 168.506 214.531 169.306C214.992 170.106 215.821 169.891 215.545 171.737C215.268 173.584 217.865 172.322 217.643 171.254C217.491 170.525 220.15 168.259 221.47 168.629C222.79 168.998 223.353 169.921 224.888 169.244C226.424 168.567 230.712 168.198 230.742 169.275C230.773 170.352 232.646 169.152 232.922 169.891C233.199 170.629 231.049 171.306 232.738 172.691C234.427 174.076 233.997 173.676 233.291 173.984C232.585 174.292 231.817 174.877 230.865 173.338C229.913 171.799 227.733 174.107 227.58 174.815C227.427 175.523 224.766 177.985 223.415 177.739C222.064 177.493 219.28 179.914 218.462 179.032ZM234.427 168.875C233.93 168.679 234.141 167.438 234.837 167.438C235.532 167.438 237.129 165.961 237.252 165.099C237.375 164.237 238.193 162.637 238.889 162.801C239.586 162.965 238.695 163.519 238.603 164.32C238.511 165.12 237.642 166.689 236.664 167.213C235.686 167.736 235.287 169.213 234.427 168.875ZM205.044 176.846C204.643 176.621 206.088 175.03 206.856 175.03C207.623 175.03 210.264 174.353 210.663 175.03C211.062 175.707 209.404 175.307 208.667 175.523C207.93 175.738 205.812 177.277 205.044 176.846ZM203.847 177.046C203.847 177.208 203.373 177.339 202.788 177.339C202.203 177.339 201.729 177.208 201.729 177.046C201.729 176.885 202.203 176.754 202.788 176.754C203.373 176.754 203.847 176.885 203.847 177.046ZM209.459 181.254C209.62 181.429 210.094 181.25 210.515 180.856C210.937 180.462 211.148 180.002 210.987 179.828C210.825 179.654 210.352 179.832 209.93 180.226C209.508 180.62 209.297 181.08 209.459 181.254ZM204.975 174.107C204.707 174.092 204.6 173.16 204.379 172.63C204.093 171.942 204.952 171.378 204.819 170.978C204.721 170.683 204.654 169.08 204.977 168.69C205.3 168.3 205.74 168.741 206.385 168.444C207.017 168.152 206.989 169.357 206.549 169.696C206.086 170.051 205.863 170.999 206.293 171.45C206.723 171.901 205.535 172.424 205.72 172.814C205.904 173.204 205.674 174.148 204.975 174.107Z" fill="#058C87"/>
<path d="M217.743 50.0053C215.218 48.2796 212.607 46.685 209.918 45.2278C221.833 60.4075 228.94 79.5537 228.94 100.366C228.94 125.844 218.285 148.831 201.2 165.093C194.798 171.183 187.497 176.332 179.508 180.316H179.501C167.579 186.26 154.141 189.601 139.923 189.601C124.607 189.601 110.197 185.721 97.6134 178.892C113.91 199.655 139.199 212.989 167.601 212.989C181.819 212.989 195.258 209.647 207.179 203.703H207.186C215.175 199.72 222.476 194.571 228.878 188.48C245.964 172.219 256.619 149.231 256.619 123.753C256.619 93.1128 241.217 66.0789 217.743 50.0053Z" fill="#C1ECF7"/>
<path d="M172.77 125.318C190.199 97.9144 189.124 65.9828 170.37 53.9966C151.616 42.0104 122.284 54.5087 104.856 81.9121C87.4272 109.316 88.5016 141.247 107.256 153.233C126.01 165.22 155.341 152.721 172.77 125.318Z" fill="#999999"/>
<path d="M138.893 215.892C138.444 210.36 133.16 207.565 129.321 204.419C124.87 198.854 123.56 191.205 120.563 184.781C118.848 181.178 116.862 176.955 112.92 175.419C109.88 174.344 106.179 177.072 106.937 180.386C107.332 183.443 108.785 186.345 108.642 189.466C108.239 191.516 108.687 193.58 109.226 195.57C111.347 203.252 114.774 211.536 117.792 218.753L117.793 218.754V218.753V218.754L138.893 215.892Z" fill="#F9CBCB"/>
<path d="M122.689 190.432C124.68 194.434 126.576 198.593 128.517 202.585C132.167 206.714 139.073 209.38 138.893 215.892C137.818 209.452 130.778 207.813 127.266 203.067C125.458 198.971 123.79 194.781 122.689 190.432ZM117.793 218.754C113.163 209.982 108.02 200.641 108.157 190.458C107.963 186.171 105.121 181.02 107.705 177.081C105.806 181.307 108.983 185.952 109.328 190.302C109.523 200.334 114.476 209.453 117.793 218.754Z" fill="#F9BDBD"/>
<path d="M108.701 188.64C109.938 190.263 116.239 188.868 117.058 186.231C115.547 170.897 103.328 175.275 108.701 188.64Z" fill="#F9D6D6"/>
<path d="M198.248 215.892C198.697 210.36 203.981 207.565 207.821 204.419C212.271 198.854 213.581 191.205 216.579 184.781C218.293 181.178 220.279 176.955 224.221 175.419C227.261 174.344 230.962 177.072 230.204 180.386C229.809 183.443 228.357 186.345 228.499 189.466C228.902 191.516 228.454 193.58 227.915 195.57C225.794 203.252 222.367 211.536 219.349 218.753L219.349 218.754V218.753V218.754L198.248 215.892Z" fill="#F9CBCB"/>
<path d="M214.452 190.432C212.461 194.434 210.566 198.593 208.624 202.585C204.974 206.714 198.068 209.38 198.248 215.892C199.323 209.452 206.363 207.813 209.875 203.067C211.684 198.971 213.351 194.781 214.452 190.432ZM219.348 218.754C223.978 209.982 229.121 200.641 228.984 190.458C229.178 186.171 232.02 181.02 229.436 177.081C231.335 181.307 228.158 185.952 227.813 190.302C227.618 200.334 222.666 209.453 219.348 218.754Z" fill="#F9BDBD"/>
<path d="M228.441 188.64C227.203 190.263 220.903 188.868 220.084 186.231C221.594 170.897 233.814 175.275 228.441 188.64Z" fill="#F9D6D6"/>
<path d="M176.25 103.62L169.634 92.5025L169.793 92.4072L175.757 102.428L172.701 90.3838L172.881 90.3381L176.25 103.62Z" fill="#C94054"/>
<path d="M175.909 103.756L175.95 88.964L176.136 88.9645L176.098 102.291L179.205 90.3373L179.384 90.3842L175.909 103.756Z" fill="#C94054"/>
<path d="M175.892 102.919L182.294 92.416L182.453 92.5128L176.05 103.016L175.892 102.919Z" fill="#C94054"/>
<path d="M170.703 99.0938L181.357 99.0935C181.607 99.0935 181.81 99.2969 181.81 99.5478L181.811 108.236C181.811 108.486 181.608 108.69 181.358 108.69L170.703 108.69C170.583 108.69 170.467 108.642 170.382 108.557C170.298 108.472 170.25 108.356 170.25 108.236L170.25 99.548C170.25 99.2969 170.452 99.0938 170.703 99.0938Z" fill="#FF9D42"/>
<path d="M181.357 99.0935L170.703 99.0938C170.452 99.0938 170.25 99.2972 170.25 99.548V101.477H177.276C179.247 101.477 180.845 103.078 180.845 105.054V108.69H181.357C181.607 108.69 181.81 108.487 181.81 108.236L181.81 99.5483C181.81 99.4886 181.799 99.4295 181.776 99.3743C181.753 99.3191 181.72 99.269 181.678 99.2267C181.636 99.1845 181.586 99.151 181.531 99.1281C181.476 99.1053 181.417 99.0935 181.357 99.0935Z" fill="#E67F20"/>
<path d="M176.017 107.93C177.621 107.93 178.922 106.627 178.922 105.018C178.922 103.41 177.621 102.106 176.017 102.106C174.413 102.106 173.112 103.41 173.112 105.018C173.112 106.627 174.413 107.93 176.017 107.93Z" fill="white"/>
<path d="M176.041 107.21C176.029 107.205 176.017 107.199 176.005 107.194C171.861 105.317 174.578 102.264 176.041 104.22C176.052 104.198 176.064 104.178 176.077 104.157C176.446 103.566 177.589 103.311 178.018 104.054C178.745 105.315 177.471 106.57 176.041 107.21Z" fill="#E3566A"/>
<path d="M176.041 107.21C176.029 107.205 176.017 107.199 176.005 107.194L176.077 104.157C176.446 103.566 177.589 103.311 178.017 104.053C178.745 105.315 177.471 106.57 176.041 107.21Z" fill="#C94054"/>
<path d="M169.443 98.4718H182.451V100.507H169.443V98.4718Z" fill="#FF9D42"/>
<path d="M185.005 83.4207C182.607 77.1562 176.679 77.5285 176.091 77.5815L176.086 77.5737C176.086 77.5737 169.57 76.8257 167.047 83.421C164.977 88.8307 169.777 92.7962 169.777 92.7962C169.777 92.7962 169.674 86.8869 172.815 90.7017C172.815 90.7017 173.468 85.1162 176.026 89.3054C178.584 85.1165 179.236 90.7017 179.236 90.7017C182.378 86.8866 182.275 92.796 182.275 92.796C182.275 92.796 187.075 88.8304 185.005 83.4207Z" fill="white"/>
<path d="M172.815 90.7021C169.673 86.8873 169.777 92.7961 169.777 92.7961L169.776 92.7941C169.695 92.6267 164.895 82.5172 173.498 77.7611C173.931 77.6689 174.369 77.6065 174.81 77.5746C173.269 79.2126 170.4 83.46 172.815 90.7021ZM179.237 90.7018C179.237 90.7018 178.584 85.1172 176.026 89.3053C176.026 89.3053 176.746 83.1466 175.864 77.5594C176.007 77.5658 176.086 77.5743 176.086 77.5743C176.086 77.5743 176.089 77.5766 176.091 77.5806C176.193 77.5712 176.296 77.5656 176.398 77.5637C177.948 79.0573 180.712 83.7035 179.237 90.7018Z" fill="#C94054"/>
<path d="M182.275 92.7959C182.275 92.7959 186.466 82.0863 178.11 77.6761C180.217 78.0109 183.401 79.2295 185.005 83.4219C187.074 88.8303 182.275 92.7959 182.275 92.7959ZM157.601 179.41L152.815 171.368L152.93 171.299L157.244 178.548L155.034 169.835L155.164 169.802L157.601 179.41Z" fill="#C94054"/>
<path d="M157.354 179.509L157.384 168.808L157.518 168.809L157.491 178.449L159.738 169.802L159.868 169.836L157.354 179.509Z" fill="#C94054"/>
<path d="M157.339 178.909L161.97 171.311L162.085 171.381L157.453 178.979L157.339 178.909Z" fill="#C94054"/>
<path d="M153.588 176.136H161.295C161.476 176.136 161.623 176.283 161.623 176.464V182.749C161.623 182.931 161.476 183.077 161.295 183.077L153.588 183.078C153.407 183.078 153.26 182.931 153.26 182.749V176.465C153.26 176.377 153.294 176.294 153.356 176.232C153.417 176.171 153.501 176.136 153.588 176.136Z" fill="#FF9D42"/>
<path d="M161.295 176.136H153.588C153.407 176.136 153.26 176.283 153.26 176.465V177.86H158.343C159.769 177.86 160.925 179.018 160.925 180.448V183.078H161.295C161.476 183.078 161.623 182.931 161.623 182.749V176.464C161.623 176.377 161.588 176.294 161.527 176.232C161.466 176.17 161.382 176.136 161.295 176.136Z" fill="#E67F20"/>
<path d="M157.432 182.528C158.592 182.528 159.533 181.585 159.533 180.422C159.533 179.259 158.592 178.315 157.432 178.315C156.271 178.315 155.331 179.259 155.331 180.422C155.331 181.585 156.271 182.528 157.432 182.528Z" fill="white"/>
<path d="M157.45 182.007L157.424 181.995C154.425 180.638 156.391 178.429 157.45 179.844C157.458 179.828 157.466 179.813 157.476 179.798C157.743 179.371 158.569 179.186 158.879 179.724C159.406 180.636 158.484 181.544 157.45 182.007Z" fill="#E3566A"/>
<path d="M157.45 182.007L157.424 181.995L157.476 179.798C157.743 179.371 158.569 179.186 158.879 179.724C159.406 180.636 158.484 181.544 157.45 182.007Z" fill="#C94054"/>
<path d="M152.677 175.686H162.087V177.159H152.677V175.686Z" fill="#FF9D42"/>
<path d="M163.934 164.798C162.2 160.267 157.911 160.536 157.486 160.574L157.482 160.569C157.482 160.569 152.769 160.028 150.943 164.798C149.446 168.712 152.918 171.581 152.918 171.581C152.918 171.581 152.843 167.306 155.116 170.065C155.116 170.065 155.588 166.025 157.439 169.055C159.289 166.025 159.761 170.065 159.761 170.065C162.034 167.305 161.96 171.58 161.96 171.58C161.96 171.58 165.431 168.712 163.934 164.798Z" fill="white"/>
<path d="M155.116 170.066C152.843 167.306 152.918 171.58 152.918 171.58L152.917 171.579C152.859 171.458 149.387 164.144 155.61 160.704C155.923 160.637 156.24 160.592 156.559 160.569C155.444 161.754 153.369 164.827 155.116 170.066ZM159.761 170.066C159.761 170.066 159.289 166.026 157.439 169.055C157.439 169.055 157.96 164.6 157.321 160.558C157.424 160.563 157.482 160.569 157.482 160.569C157.482 160.569 157.484 160.57 157.486 160.573C157.526 160.569 157.602 160.564 157.708 160.561C158.829 161.642 160.828 165.003 159.761 170.066Z" fill="#C94054"/>
<path d="M161.959 171.58C161.959 171.58 164.991 163.833 158.946 160.643C160.47 160.885 162.774 161.766 163.934 164.799C165.431 168.712 161.959 171.58 161.959 171.58ZM204.251 155.474L199.466 147.432L199.58 147.363L203.895 154.612L201.684 145.899L201.814 145.866L204.251 155.474Z" fill="#C94054"/>
<path d="M204.005 155.573L204.034 144.873L204.168 144.873L204.142 154.513L206.389 145.866L206.519 145.9L204.005 155.573Z" fill="#C94054"/>
<path d="M203.992 154.975L208.624 147.376L208.738 147.446L204.107 155.045L203.992 154.975Z" fill="#C94054"/>
<path d="M200.238 152.2H207.946C208.127 152.2 208.274 152.348 208.274 152.529V158.813C208.274 158.995 208.127 159.142 207.946 159.142L200.238 159.142C200.057 159.142 199.91 158.995 199.91 158.814V152.529C199.91 152.442 199.945 152.358 200.006 152.297C200.068 152.235 200.151 152.2 200.238 152.2Z" fill="#FF9D42"/>
<path d="M207.946 152.2H200.238C200.057 152.2 199.91 152.347 199.91 152.529V153.924H204.993C206.419 153.924 207.575 155.083 207.575 156.512V159.142H207.946C208.127 159.142 208.274 158.995 208.274 158.813V152.529C208.274 152.347 208.127 152.2 207.946 152.2Z" fill="#E67F20"/>
<path d="M204.083 158.593C205.243 158.593 206.184 157.65 206.184 156.486C206.184 155.323 205.243 154.38 204.083 154.38C202.922 154.38 201.982 155.323 201.982 156.486C201.982 157.65 202.922 158.593 204.083 158.593Z" fill="white"/>
<path d="M204.1 158.072L204.074 158.06C201.076 156.702 203.042 154.494 204.1 155.909C204.108 155.893 204.117 155.878 204.127 155.863C204.393 155.436 205.22 155.251 205.53 155.788C206.056 156.701 205.134 157.609 204.1 158.072Z" fill="#E3566A"/>
<path d="M204.1 158.072L204.074 158.06L204.127 155.863C204.393 155.436 205.22 155.251 205.53 155.788C206.056 156.701 205.134 157.609 204.1 158.072Z" fill="#C94054"/>
<path d="M199.328 151.75H208.737V153.223H199.328V151.75Z" fill="#FF9D42"/>
<path d="M210.585 140.862C208.85 136.331 204.562 136.6 204.136 136.638L204.133 136.633C204.133 136.633 199.42 136.092 197.594 140.863C196.096 144.776 199.569 147.645 199.569 147.645C199.569 147.645 199.494 143.37 201.767 146.129C201.767 146.129 202.239 142.089 204.09 145.119C205.94 142.089 206.412 146.129 206.412 146.129C208.685 143.37 208.61 147.645 208.61 147.645C208.61 147.645 212.082 144.776 210.585 140.862Z" fill="white"/>
<path d="M201.767 146.13C199.494 143.37 199.569 147.645 199.569 147.645L199.568 147.643C199.51 147.522 196.038 140.209 202.261 136.768C202.574 136.702 202.891 136.656 203.21 136.633C202.095 137.818 200.02 140.891 201.767 146.13ZM206.412 146.13C206.412 146.13 205.94 142.09 204.089 145.119C204.089 145.119 204.61 140.664 203.972 136.622C204.075 136.627 204.132 136.633 204.132 136.633C204.132 136.633 204.134 136.634 204.137 136.637C204.177 136.633 204.253 136.628 204.358 136.625C205.48 137.706 207.479 141.067 206.412 146.13Z" fill="#C94054"/>
<path d="M208.61 147.645C208.61 147.645 211.641 139.897 205.597 136.707C207.121 136.949 209.424 137.831 210.585 140.863C212.082 144.776 208.61 147.645 208.61 147.645ZM140.413 32.3592L134.897 26.6158L134.979 26.5364L139.951 31.7131L136.442 24.916L136.543 24.8633L140.413 32.3592Z" fill="#C94054"/>
<path d="M140.227 32.489L138.193 23.6098L138.305 23.5841L140.137 31.5832L140.337 23.9784L140.451 23.9814L140.227 32.489Z" fill="#C94054"/>
<path d="M140.096 31.9763L142.475 24.7798L142.583 24.8158L140.205 32.0123L140.096 31.9763Z" fill="#C94054"/>
<path d="M136.455 30.4199L142.846 28.9299C142.918 28.9131 142.994 28.9257 143.057 28.9649C143.12 29.004 143.164 29.0666 143.181 29.1388L144.39 34.3502C144.407 34.4224 144.394 34.4984 144.355 34.5614C144.316 34.6243 144.254 34.6691 144.181 34.6859L137.79 36.176C137.718 36.1928 137.642 36.1802 137.58 36.141C137.517 36.1018 137.472 36.0392 137.455 35.967L136.246 30.7557C136.23 30.6834 136.242 30.6075 136.281 30.5445C136.32 30.4815 136.383 30.4367 136.455 30.4199Z" fill="#FF9D42"/>
<path d="M142.846 28.9299L136.455 30.42C136.383 30.4368 136.32 30.4816 136.281 30.5445C136.242 30.6075 136.23 30.6835 136.246 30.7557L136.515 31.9125L140.729 30.9299C141.011 30.8644 141.302 30.855 141.587 30.9022C141.871 30.9495 142.144 31.0526 142.389 31.2055C142.634 31.3584 142.847 31.5582 143.015 31.7935C143.183 32.0288 143.303 32.295 143.368 32.5768L143.874 34.7578L144.181 34.6862C144.253 34.6694 144.316 34.6246 144.355 34.5616C144.394 34.4987 144.407 34.4227 144.39 34.3504L143.181 29.1391C143.173 29.1033 143.157 29.0695 143.136 29.0396C143.115 29.0097 143.088 28.9843 143.057 28.9649C143.026 28.9455 142.991 28.9324 142.955 28.9264C142.919 28.9204 142.882 28.9216 142.846 28.9299Z" fill="#E67F20"/>
<path d="M140.467 35.0243C141.455 35.0243 142.256 34.2214 142.256 33.2309C142.256 32.2405 141.455 31.4376 140.467 31.4376C139.479 31.4376 138.678 32.2405 138.678 33.2309C138.678 34.2214 139.479 35.0243 140.467 35.0243Z" fill="white"/>
<path d="M140.787 34.5423L140.763 34.5375C138.016 33.9915 139.221 31.78 140.371 32.7487C140.375 32.7343 140.379 32.72 140.384 32.7059C140.523 32.3 141.173 31.9869 141.533 32.3726C142.145 33.0273 141.555 33.9585 140.787 34.5423Z" fill="#E3566A"/>
<path d="M140.787 34.5423L140.763 34.5375L140.384 32.7059C140.523 32.3 141.173 31.9869 141.533 32.3726C142.145 33.0273 141.555 33.9585 140.787 34.5423Z" fill="#C94054"/>
<path d="M135.612 30.2274L143.414 28.4086L143.698 29.6294L135.895 31.4484L135.612 30.2274Z" fill="#FF9D42"/>
<path d="M142.853 19.0185C140.543 15.596 137.039 16.6482 136.694 16.7623L136.689 16.7583C136.689 16.7583 132.677 17.2209 132.081 21.53C131.592 25.0645 135.023 26.7721 135.023 26.7721C135.023 26.7721 134.139 23.2416 136.555 25.0907C136.555 25.0907 136.169 21.649 138.286 23.804C139.238 20.9336 140.406 24.1928 140.406 24.1928C141.76 21.465 142.521 25.0241 142.521 25.0241C142.521 25.0241 144.848 21.9739 142.853 19.0185Z" fill="white"/>
<path d="M136.555 25.0909C134.139 23.2419 135.024 26.7718 135.024 26.7718L135.022 26.7708C134.951 26.6815 130.665 21.2885 135.163 17.2324C135.41 17.1166 135.664 17.0179 135.924 16.937C135.228 18.1354 134.098 21.0845 136.555 25.0909ZM140.406 24.1927C140.406 24.1927 139.238 20.934 138.286 23.804C138.286 23.804 137.861 20.0089 136.554 16.781C136.641 16.7648 136.689 16.7588 136.689 16.7588C136.689 16.7588 136.692 16.7598 136.694 16.7618C136.726 16.7502 136.789 16.7318 136.876 16.7089C138.013 17.388 140.317 19.7886 140.406 24.1927Z" fill="#C94054"/>
<path d="M142.52 25.0238C142.52 25.0238 143.544 18.0136 137.918 16.5366C139.228 16.4428 141.308 16.7284 142.853 19.0189C144.848 21.9741 142.52 25.0238 142.52 25.0238ZM100.092 81.2242L87.9237 70.9594L88.0706 70.7842L99.038 80.0364L90.6413 67.2548L90.8319 67.129L100.092 81.2242Z" fill="#C94054"/>
<path d="M99.7491 81.5215L93.8514 64.2903L94.0672 64.2162L99.3804 79.7392L98.191 64.5739L98.4186 64.556L99.7491 81.5215Z" fill="#C94054"/>
<path d="M99.3916 80.5413L102.62 65.7314L102.843 65.7801L99.6147 80.59L99.3916 80.5413Z" fill="#C94054"/>
<path d="M91.8163 78.1981L104.215 73.8942C104.355 73.8458 104.508 73.8549 104.641 73.9198C104.775 73.9846 104.877 74.0997 104.925 74.2399L108.417 84.3499C108.465 84.4901 108.456 84.6438 108.392 84.7773C108.327 84.9107 108.212 85.013 108.072 85.0615L95.6736 89.3654C95.5337 89.4138 95.3804 89.4047 95.2473 89.3399C95.1142 89.275 95.0122 89.1599 94.9637 89.0198L91.4716 78.9097C91.4232 78.7695 91.4324 78.6158 91.497 78.4823C91.5617 78.3489 91.6765 78.2467 91.8163 78.1981Z" fill="#FF9D42"/>
<path d="M104.215 73.8942L91.8163 78.198C91.6765 78.2466 91.5617 78.3488 91.497 78.4823C91.4324 78.6157 91.4232 78.7694 91.4716 78.9096L92.2468 81.1539L100.424 78.3157C102.717 77.5196 105.22 78.7382 106.015 81.0375L107.476 85.2684L108.072 85.0615C108.212 85.0129 108.327 84.9106 108.392 84.7772C108.456 84.6437 108.465 84.49 108.417 84.3498L104.925 74.24C104.901 74.1706 104.864 74.1065 104.815 74.0516C104.766 73.9966 104.707 73.9518 104.642 73.9197C104.576 73.8876 104.504 73.8688 104.431 73.8644C104.358 73.86 104.284 73.8701 104.215 73.8942Z" fill="#E67F20"/>
<path d="M100.382 86.5321C102.358 86.5321 103.96 84.9266 103.96 82.946C103.96 80.9654 102.358 79.3599 100.382 79.3599C98.4066 79.3599 96.8049 80.9654 96.8049 82.946C96.8049 84.9266 98.4066 86.5321 100.382 86.5321Z" fill="white"/>
<path d="M101.292 85.487C101.275 85.4855 101.259 85.484 101.243 85.4825C95.6649 84.9728 97.6009 80.3221 100.09 82.0073C100.093 81.9778 100.099 81.9485 100.106 81.9193C100.298 81.0829 101.525 80.3244 102.322 81.0153C103.676 82.189 102.698 84.1646 101.292 85.487Z" fill="#E3566A"/>
<path d="M101.292 85.487L101.243 85.4825L100.106 81.9193C100.297 81.0829 101.525 80.3244 102.322 81.0153C103.676 82.189 102.698 84.1646 101.292 85.487Z" fill="#C94054"/>
<path d="M90.1051 77.987L105.243 72.7325L106.061 75.1011L90.9231 80.3555L90.1051 77.987Z" fill="#FF9D42"/>
<path d="M102.16 54.1823C96.8525 47.8606 90.1034 50.6882 89.44 50.9877L89.431 50.9806C89.431 50.9806 81.5483 52.7419 81.2623 61.4363C81.0277 68.5677 88.2076 71.2438 88.2076 71.2438C88.2076 71.2438 85.7123 64.4086 90.9021 67.579C90.9021 67.579 89.4161 60.8159 94.0768 64.6571C95.3699 58.7491 98.3741 64.9853 98.3741 64.9853C100.497 59.2767 102.752 66.1951 102.752 66.1951C102.752 66.1951 106.744 59.6414 102.16 54.1823Z" fill="white"/>
<path d="M90.9023 67.5792C85.7126 64.4088 88.2084 71.2432 88.2084 71.2432L88.2058 71.2415C88.0452 71.0791 78.3959 61.2532 86.4954 52.2437C86.9617 51.9617 87.4467 51.7121 87.9471 51.4965C86.8122 54.0254 85.1807 60.1271 90.9023 67.5792ZM98.3744 64.9855C98.3744 64.9855 95.3704 58.7502 94.0768 64.6571C94.0768 64.6571 92.4395 57.1992 89.167 51.0539C89.3359 51.0035 89.431 50.9815 89.431 50.9815C89.431 50.9815 89.4353 50.9828 89.4403 50.9866C89.5022 50.9568 89.6221 50.9069 89.7901 50.8431C92.1944 51.9548 97.2782 56.2455 98.3744 64.9855Z" fill="#C94054"/>
<path d="M102.752 66.1949C102.752 66.1949 103.324 52.0394 91.8271 50.2821C94.414 49.8205 98.6094 49.9526 102.161 54.1833C106.743 59.6417 102.752 66.1949 102.752 66.1949ZM238.14 126.43L247.354 118.656L247.243 118.524L238.937 125.53L245.296 115.85L245.152 115.755L238.14 126.43Z" fill="#C94054"/>
<path d="M238.399 126.655L242.865 113.605L242.702 113.549L238.678 125.305L239.579 113.82L239.406 113.807L238.399 126.655Z" fill="#C94054"/>
<path d="M236.078 114.731L236.247 114.694L238.692 125.91L238.523 125.947L236.078 114.731Z" fill="#C94054"/>
<path d="M244.406 124.138L235.017 120.878C234.964 120.86 234.909 120.853 234.853 120.856C234.798 120.859 234.744 120.873 234.694 120.898C234.644 120.922 234.599 120.956 234.562 120.997C234.525 121.039 234.497 121.088 234.479 121.14L231.834 128.797C231.816 128.849 231.808 128.905 231.812 128.96C231.815 129.016 231.829 129.07 231.853 129.12C231.878 129.17 231.912 129.215 231.953 129.252C231.995 129.289 232.043 129.317 232.095 129.336L241.485 132.595C241.538 132.613 241.593 132.621 241.648 132.618C241.704 132.614 241.758 132.6 241.808 132.576C241.858 132.552 241.903 132.518 241.939 132.476C241.976 132.434 242.005 132.386 242.023 132.333L244.667 124.677C244.686 124.624 244.693 124.569 244.69 124.513C244.687 124.458 244.673 124.403 244.648 124.353C244.624 124.303 244.59 124.258 244.549 124.221C244.507 124.184 244.459 124.156 244.406 124.138Z" fill="#FF9D42"/>
<path d="M235.017 120.879L244.406 124.138C244.459 124.156 244.507 124.185 244.549 124.221C244.59 124.258 244.624 124.303 244.648 124.353C244.673 124.403 244.687 124.458 244.69 124.513C244.693 124.569 244.686 124.624 244.667 124.677L244.08 126.377L237.888 124.227C236.151 123.624 234.255 124.547 233.654 126.289L232.547 129.493L232.095 129.336C232.043 129.318 231.995 129.289 231.953 129.252C231.912 129.215 231.878 129.171 231.853 129.121C231.829 129.071 231.815 129.016 231.812 128.961C231.808 128.905 231.816 128.85 231.834 128.797L234.479 121.141C234.497 121.088 234.525 121.04 234.562 120.998C234.599 120.956 234.644 120.922 234.694 120.898C234.744 120.874 234.798 120.859 234.853 120.856C234.909 120.853 234.964 120.86 235.017 120.879Z" fill="#E67F20"/>
<path d="M237.919 130.449C239.415 130.449 240.628 129.233 240.628 127.734C240.628 126.234 239.415 125.018 237.919 125.018C236.423 125.018 235.21 126.234 235.21 127.734C235.21 129.233 236.423 130.449 237.919 130.449Z" fill="white"/>
<path d="M237.231 129.658L237.268 129.654C241.492 129.269 240.026 125.746 238.141 127.023C238.138 127 238.134 126.978 238.129 126.956C237.983 126.323 237.054 125.748 236.45 126.272C235.425 127.16 236.166 128.657 237.231 129.658Z" fill="#E3566A"/>
<path d="M237.231 129.658L237.268 129.654L238.129 126.956C237.983 126.323 237.054 125.748 236.45 126.272C235.425 127.16 236.166 128.657 237.231 129.658Z" fill="#C94054"/>
<path d="M245.074 125.764L233.61 121.786L234.23 119.992L245.694 123.971L245.074 125.764Z" fill="#FF9D42"/>
<path d="M236.573 105.95C240.592 101.163 245.704 103.304 246.206 103.531L246.213 103.526C246.213 103.526 252.182 104.86 252.399 111.444C252.577 116.845 247.139 118.871 247.139 118.871C247.139 118.871 249.029 113.695 245.099 116.096C245.099 116.096 246.224 110.974 242.695 113.883C241.715 109.409 239.44 114.132 239.44 114.132C237.833 109.809 236.125 115.048 236.125 115.048C236.125 115.048 233.101 110.085 236.573 105.95Z" fill="white"/>
<path d="M245.099 116.096C249.029 113.695 247.139 118.871 247.139 118.871L247.141 118.87C247.262 118.747 254.57 111.306 248.436 104.483C248.083 104.269 247.716 104.08 247.337 103.917C248.196 105.832 249.432 110.453 245.099 116.096ZM239.44 114.132C239.44 114.132 241.715 109.41 242.694 113.883C242.694 113.883 243.934 108.235 246.413 103.581C246.285 103.543 246.213 103.527 246.213 103.527C246.213 103.527 246.21 103.528 246.206 103.53C246.159 103.508 246.068 103.47 245.941 103.422C244.12 104.264 240.27 107.513 239.44 114.132Z" fill="#C94054"/>
<path d="M236.125 115.048C236.125 115.048 235.691 104.328 244.398 102.997C242.439 102.648 239.262 102.747 236.572 105.951C233.102 110.085 236.125 115.048 236.125 115.048ZM180.061 43.3349L187.109 37.3885L187.024 37.2869L180.671 42.6467L185.535 35.2423L185.425 35.1694L180.061 43.3349Z" fill="#C94054"/>
<path d="M180.259 43.507L183.675 33.525L183.55 33.4819L180.473 42.4745L181.162 33.6891L181.03 33.6788L180.259 43.507Z" fill="#C94054"/>
<path d="M178.481 34.3832L178.61 34.355L180.481 42.9344L180.351 42.9629L178.481 34.3832Z" fill="#C94054"/>
<path d="M184.854 41.5816L177.672 39.0885C177.632 39.0746 177.589 39.0687 177.547 39.0712C177.504 39.0738 177.463 39.0846 177.425 39.1032C177.387 39.1218 177.352 39.1478 177.324 39.1796C177.296 39.2114 177.274 39.2485 177.261 39.2887L175.238 45.1453C175.224 45.1855 175.218 45.2281 175.22 45.2706C175.223 45.313 175.234 45.3546 175.252 45.3929C175.271 45.4311 175.297 45.4654 175.328 45.4936C175.36 45.5219 175.397 45.5436 175.437 45.5575L182.62 48.0506C182.66 48.0645 182.702 48.0704 182.745 48.0679C182.787 48.0654 182.829 48.0545 182.867 48.0359C182.905 48.0173 182.939 47.9914 182.967 47.9595C182.995 47.9277 183.017 47.8907 183.031 47.8504L185.054 41.9938C185.068 41.9536 185.074 41.911 185.071 41.8686C185.069 41.8261 185.058 41.7845 185.039 41.7462C185.021 41.708 184.995 41.6737 184.963 41.6455C184.931 41.6172 184.894 41.5955 184.854 41.5816Z" fill="#FF9D42"/>
<path d="M177.672 39.0886L184.854 41.5817C185.023 41.6402 185.112 41.8247 185.054 41.9939L184.605 43.2941L179.868 41.6498C178.539 41.1884 177.089 41.8945 176.629 43.2265L175.782 45.6775L175.437 45.5576C175.397 45.5436 175.36 45.5219 175.328 45.4937C175.296 45.4655 175.27 45.4312 175.252 45.3929C175.233 45.3547 175.223 45.3131 175.22 45.2706C175.218 45.2282 175.223 45.1856 175.237 45.1454L177.26 39.2887C177.288 39.2076 177.348 39.1409 177.425 39.1034C177.502 39.0658 177.591 39.0605 177.672 39.0886Z" fill="#E67F20"/>
<path d="M179.892 46.4098C181.037 46.4098 181.964 45.4797 181.964 44.3324C181.964 43.1851 181.037 42.255 179.892 42.255C178.748 42.255 177.82 43.1851 177.82 44.3324C177.82 45.4797 178.748 46.4098 179.892 46.4098Z" fill="white"/>
<path d="M179.365 45.8043L179.394 45.8015C182.625 45.5063 181.504 42.8121 180.062 43.7884C180.059 43.7713 180.056 43.7543 180.052 43.7375C179.941 43.253 179.23 42.8136 178.768 43.2139C177.984 43.8938 178.551 45.0382 179.365 45.8043Z" fill="#E3566A"/>
<path d="M179.365 45.8043L179.394 45.8015L180.052 43.7375C179.941 43.253 179.23 42.8136 178.768 43.2139C177.984 43.8938 178.551 45.0382 179.365 45.8043Z" fill="#C94054"/>
<path d="M185.366 42.8285L176.596 39.7846L177.07 38.4125L185.84 41.4564L185.366 42.8285Z" fill="#FF9D42"/>
<path d="M178.862 27.6695C181.937 24.0072 185.847 25.6455 186.231 25.8189L186.236 25.8149C186.236 25.8149 190.803 26.8353 190.968 31.8719C191.104 36.0033 186.945 37.5534 186.945 37.5534C186.945 37.5534 188.39 33.5937 185.384 35.4304C185.384 35.4304 186.245 31.5125 183.545 33.7379C182.796 30.3153 181.055 33.9279 181.055 33.9279C179.826 30.6209 178.519 34.6287 178.519 34.6287C178.519 34.6287 176.207 30.8319 178.862 27.6695Z" fill="white"/>
<path d="M185.384 35.4304C188.39 33.5937 186.945 37.5529 186.945 37.5529L186.946 37.5519C187.039 37.4579 192.629 31.7656 187.937 26.5464C187.667 26.3831 187.386 26.2385 187.096 26.1136C187.753 27.5787 188.698 31.1134 185.384 35.4304ZM181.055 33.9277C181.055 33.9277 182.795 30.3156 183.545 33.7374C183.545 33.7374 184.493 29.4169 186.389 25.857C186.291 25.8278 186.236 25.8151 186.236 25.8151C186.236 25.8151 186.234 25.8159 186.231 25.8182C186.164 25.788 186.096 25.7602 186.028 25.735C184.635 26.3791 181.69 28.8646 181.055 33.9277Z" fill="#C94054"/>
<path d="M178.519 34.6285C178.519 34.6285 178.188 26.4282 184.848 25.4103C183.349 25.1428 180.919 25.2195 178.861 27.6702C176.207 30.8321 178.519 34.6285 178.519 34.6285Z" fill="#C94054"/>
<path d="M206.55 26.9986C206.55 26.9986 210.046 20.6423 216.049 23.0737C220.895 25.0361 220.888 19.0449 224.109 20.0209C228.667 21.4018 230.076 15.9732 231.954 16.9682C234.424 18.2765 234.945 22.5586 238.214 21.7628C241.189 21.0386 241.469 15.3352 243.971 18.4946C248.001 23.5824 250.544 16.5321 253.47 21.7628C255.665 25.6857 262.682 23.9459 264.409 26.9986H206.55ZM264.409 107.183C264.409 107.183 267.905 100.826 273.908 103.258C278.754 105.22 278.747 99.229 281.968 100.205C286.526 101.586 287.935 96.1574 289.813 97.1524C292.283 98.4607 292.805 102.743 296.073 101.947C299.048 101.223 299.328 95.5194 301.83 98.6787C305.86 103.767 308.403 96.7163 311.33 101.947C313.524 105.87 320.541 104.13 322.268 107.183H264.409ZM20.7319 43.5711C20.7319 43.5711 24.2281 37.2148 30.2313 39.6461C35.0768 41.6086 35.0703 35.6173 38.2913 36.5934C42.8491 37.9743 44.2579 32.5457 46.1361 33.5407C48.606 34.849 49.1278 39.1311 52.3963 38.3353C55.3709 37.611 55.651 31.9077 58.1534 35.067C62.1834 40.1548 64.7262 33.1046 67.6525 38.3353C69.8473 42.2582 76.864 40.5183 78.591 43.5711H20.7319ZM65.7205 110.865C65.7205 110.865 68.8394 104.509 74.1952 106.94C78.5181 108.903 78.5121 102.911 81.3858 103.888C85.452 105.268 86.7086 99.8398 88.3844 100.835C90.588 102.143 91.0535 106.425 93.9692 105.629C96.6229 104.905 96.8729 99.2018 99.1054 102.361C102.701 107.449 104.969 100.399 107.58 105.629C109.538 109.552 115.798 107.812 117.339 110.865H65.7205Z" fill="#A6DDFF"/>
<path d="M235.221 77.7987L227.556 63.8305L227.756 63.7201L234.665 76.3104L231.422 61.3553L231.645 61.3069L235.221 77.7987Z" fill="#C94054"/>
<path d="M234.795 77.9525L235.482 59.7483L235.71 59.7569L235.091 76.1566L239.429 61.5792L239.647 61.6445L234.795 77.9525Z" fill="#C94054"/>
<path d="M234.809 76.9018L243.139 64.2505L243.33 64.3765L235 77.0281L234.809 76.9018Z" fill="#C94054"/>
<path d="M228.588 71.9888L241.701 72.4488C241.849 72.4541 241.989 72.5179 242.09 72.6264C242.19 72.7349 242.244 72.8791 242.239 73.0273L241.866 83.7197C241.863 83.7931 241.847 83.8653 241.816 83.9322C241.786 83.999 241.743 84.0592 241.689 84.1093C241.635 84.1594 241.572 84.1984 241.504 84.2241C241.435 84.2499 241.362 84.2618 241.289 84.2592L228.176 83.7991C228.028 83.7938 227.888 83.73 227.787 83.6215C227.687 83.513 227.633 83.3688 227.638 83.2206L228.011 72.5282C228.013 72.4548 228.03 72.3826 228.061 72.3157C228.091 72.2489 228.134 72.1887 228.188 72.1386C228.242 72.0885 228.305 72.0495 228.373 72.0238C228.442 71.9981 228.515 71.9862 228.588 71.9888Z" fill="#FF9D42"/>
<path d="M241.701 72.4488L228.588 71.9888C228.515 71.9862 228.442 71.9981 228.373 72.0238C228.305 72.0495 228.242 72.0885 228.188 72.1386C228.134 72.1887 228.091 72.2489 228.061 72.3157C228.031 72.3826 228.014 72.4548 228.011 72.5282L227.928 74.9018L236.576 75.2051C239.002 75.2903 240.899 77.3304 240.814 79.7622L240.658 84.237L241.289 84.2592C241.362 84.2618 241.435 84.2499 241.504 84.2241C241.573 84.1984 241.635 84.1594 241.689 84.1093C241.743 84.0592 241.786 83.999 241.816 83.9322C241.847 83.8653 241.864 83.7931 241.866 83.7197L242.239 73.0273C242.242 72.9539 242.23 72.8807 242.204 72.8119C242.179 72.7431 242.14 72.68 242.09 72.6263C242.04 72.5726 241.98 72.5292 241.913 72.4988C241.846 72.4683 241.774 72.4513 241.701 72.4488Z" fill="#E67F20"/>
<path d="M234.874 83.0962C236.85 83.0962 238.451 81.4907 238.451 79.5101C238.451 77.5295 236.85 75.924 234.874 75.924C232.898 75.924 231.297 77.5295 231.297 79.5101C231.297 81.4907 232.898 83.0962 234.874 83.0962Z" fill="white"/>
<path d="M234.81 82.2087L234.766 82.1868C229.745 79.6979 233.222 76.0581 234.938 78.5285C234.953 78.5023 234.968 78.4769 234.985 78.4524C235.464 77.7413 236.882 77.4766 237.378 78.409C238.219 79.9926 236.596 81.4824 234.81 82.2087Z" fill="#E3566A"/>
<path d="M234.81 82.2086L234.766 82.1867L234.985 78.4523C235.464 77.7412 236.882 77.4765 237.378 78.409C238.218 79.9926 236.596 81.4824 234.81 82.2086Z" fill="#C94054"/>
<path d="M227.066 71.1763L243.075 71.7384L242.988 74.2431L226.978 73.681L227.066 71.1763Z" fill="#FF9D42"/>
<path d="M246.864 53.3171C244.183 45.5035 236.871 45.7055 236.144 45.7455L236.138 45.7357C236.138 45.7357 228.152 44.5338 224.762 52.5417C221.982 59.1102 227.719 64.198 227.719 64.198C227.719 64.198 227.846 56.9206 231.549 61.7516C231.549 61.7516 232.592 54.9057 235.561 60.1715C238.889 55.1263 239.452 62.0286 239.452 62.0286C243.482 57.4689 243.102 64.7375 243.102 64.7375C243.102 64.7375 249.179 60.0644 246.864 53.3171Z" fill="white"/>
<path d="M231.549 61.7521C227.846 56.9212 227.72 64.198 227.72 64.198L227.718 64.1955C227.627 63.986 222.154 51.3365 232.946 45.8547C233.482 45.7599 234.024 45.7021 234.569 45.6818C232.602 47.6311 228.888 52.7348 231.549 61.7521ZM239.452 62.0294C239.452 62.0294 238.889 55.1281 235.561 60.1718C235.561 60.1718 236.712 52.6231 235.866 45.7087C236.042 45.7226 236.138 45.7365 236.138 45.7365C236.138 45.7365 236.142 45.7392 236.145 45.7445C236.271 45.7373 236.397 45.7347 236.523 45.737C238.366 47.642 241.568 53.48 239.452 62.0294Z" fill="#C94054"/>
<path d="M243.101 64.7375C243.101 64.7375 248.719 51.7381 238.625 45.949C241.204 46.4521 245.07 48.0894 246.864 53.3184C249.179 60.0644 243.101 64.7375 243.101 64.7375ZM108.576 149.085L103.154 139.205L103.296 139.127L108.182 148.032L105.889 137.454L106.046 137.42L108.576 149.085Z" fill="#C94054"/>
<path d="M108.274 149.194L108.76 136.317L108.921 136.323L108.484 147.924L111.552 137.612L111.706 137.658L108.274 149.194Z" fill="#C94054"/>
<path d="M108.286 148.452L114.179 139.503L114.314 139.593L108.421 148.542L108.286 148.452Z" fill="#C94054"/>
<path d="M103.884 144.975L113.159 145.301C113.264 145.304 113.363 145.349 113.434 145.426C113.506 145.503 113.544 145.605 113.54 145.71L113.276 153.273C113.272 153.378 113.227 153.477 113.151 153.549C113.074 153.62 112.972 153.658 112.868 153.655L103.592 153.329C103.488 153.325 103.389 153.28 103.317 153.204C103.246 153.127 103.208 153.025 103.212 152.92L103.476 145.357C103.477 145.305 103.489 145.254 103.511 145.207C103.532 145.159 103.563 145.117 103.601 145.081C103.639 145.046 103.683 145.018 103.732 145C103.78 144.982 103.832 144.973 103.884 144.975Z" fill="#FF9D42"/>
<path d="M113.159 145.301L103.884 144.975C103.779 144.971 103.677 145.01 103.601 145.081C103.524 145.153 103.479 145.252 103.475 145.357L103.417 147.036L109.534 147.25C111.249 147.31 112.592 148.754 112.532 150.474L112.421 153.639L112.867 153.654C112.972 153.658 113.074 153.62 113.15 153.548C113.227 153.477 113.272 153.378 113.276 153.273L113.54 145.71C113.543 145.605 113.505 145.503 113.434 145.426C113.363 145.349 113.264 145.304 113.159 145.301Z" fill="#E67F20"/>
<path d="M108.33 152.832C109.728 152.832 110.86 151.696 110.86 150.295C110.86 148.895 109.728 147.759 108.33 147.759C106.933 147.759 105.8 148.895 105.8 150.295C105.8 151.696 106.933 152.832 108.33 152.832Z" fill="white"/>
<path d="M108.285 152.204L108.253 152.189C104.702 150.428 107.161 147.854 108.375 149.601C108.385 149.583 108.397 149.565 108.409 149.547C108.747 149.044 109.75 148.857 110.101 149.516C110.696 150.637 109.549 151.69 108.285 152.204Z" fill="#E3566A"/>
<path d="M108.285 152.204L108.253 152.189L108.409 149.547C108.747 149.044 109.75 148.857 110.101 149.516C110.696 150.637 109.548 151.69 108.285 152.204Z" fill="#C94054"/>
<path d="M102.804 144.4L114.128 144.798L114.066 146.57L102.742 146.172L102.804 144.4Z" fill="#FF9D42"/>
<path d="M116.811 131.768C114.915 126.241 109.742 126.384 109.229 126.412L109.225 126.406C109.225 126.406 103.575 125.556 101.178 131.22C99.2115 135.866 103.269 139.465 103.269 139.465C103.269 139.465 103.359 134.317 105.978 137.734C105.978 137.734 106.716 132.892 108.816 136.617C111.17 133.048 111.568 137.93 111.568 137.93C114.419 134.705 114.15 139.846 114.15 139.846C114.15 139.846 118.449 136.541 116.811 131.768Z" fill="white"/>
<path d="M105.978 137.735C103.359 134.318 103.27 139.465 103.27 139.465L103.269 139.463C103.204 139.315 99.3326 130.367 106.966 126.49C107.392 126.414 107.783 126.38 108.114 126.367C106.722 127.746 104.096 131.356 105.978 137.735ZM111.568 137.931C111.568 137.931 111.17 133.049 108.815 136.617C108.815 136.617 109.63 131.277 109.031 126.387C109.156 126.397 109.224 126.406 109.224 126.406C109.224 126.406 109.227 126.408 109.229 126.412C109.277 126.408 109.369 126.406 109.496 126.407C110.801 127.754 113.065 131.883 111.568 137.931Z" fill="#C94054"/>
<path d="M114.15 139.846C114.15 139.846 118.124 130.651 110.983 126.556C112.808 126.912 115.543 128.07 116.811 131.769C118.448 136.541 114.15 139.846 114.15 139.846Z" fill="#C94054"/>
</g>
<defs>
<clipPath id="clip0_264_12185">
<rect width="343" height="242" fill="white"/>
</clipPath>
</defs>
</svg>
