<svg width="301" height="212" viewBox="0 0 301 212" fill="none" xmlns="http://www.w3.org/2000/svg">
<path d="M271.402 142.856C271.384 155.039 267.374 164.958 260.728 172.729C258.366 175.491 255.669 177.981 252.7 180.202C246.471 184.867 239.044 188.358 230.976 190.72C230.657 190.812 230.338 190.905 230.017 190.993C228.383 191.452 226.723 191.864 225.042 192.231C224.077 192.44 223.107 192.636 222.128 192.818C209.27 195.194 195.396 194.998 182.477 192.392C143.935 184.617 102.476 203.91 70.8502 197.499C70.8194 197.492 70.7908 197.485 70.76 197.481C68.7674 197.072 66.8165 196.564 64.9052 195.939C64.76 195.891 64.6171 195.845 64.4719 195.796C60.7483 194.538 57.1852 192.836 53.8113 190.588C48.1105 186.792 42.9418 181.443 38.4198 174.059C37.2981 172.227 36.216 170.27 35.1757 168.18C24.8561 147.451 28.9162 124.073 46.8392 104.798C63.183 87.22 67.6808 76.753 70.4411 51.5453C74.2615 16.6826 119.972 3.94116 149.772 17.8373C158.781 22.036 173.53 26.0917 182.171 25.5132C238.362 21.7544 245.442 43.6826 248.671 87.22C250.186 107.666 271.443 117.13 271.402 142.856Z" fill="#E3F4FF"/>
<path d="M216.15 144.008C216.482 143.324 216.017 142.46 215.33 142.135C214.644 141.809 213.831 141.902 213.097 142.107C211.91 142.439 210.901 142.994 209.872 143.62C210.516 142.676 211.126 141.708 211.704 140.725C212.086 140.075 212.453 139.416 212.807 138.748C214.352 139.484 216.12 139.747 217.811 139.488C218.453 139.39 219.159 139.159 219.44 138.575C219.769 137.892 219.304 137.028 218.62 136.702C217.936 136.375 217.126 136.465 216.396 136.668C215.17 137.01 214.135 137.591 213.072 138.243C214.138 136.175 215.059 134.031 215.788 131.823C217.41 132.282 219.168 132.256 220.773 131.74C221.391 131.541 222.052 131.201 222.237 130.579C222.453 129.853 221.857 129.074 221.129 128.86C220.403 128.646 219.617 128.864 218.929 129.18C217.813 129.693 216.908 130.398 215.995 131.177C216.726 128.837 217.27 126.344 217.09 123.892C217.086 123.841 217.08 123.79 217.076 123.739C218.764 123.976 220.523 123.701 222.055 122.952C222.638 122.667 223.243 122.236 223.338 121.595C223.448 120.845 222.746 120.159 221.996 120.051C221.246 119.943 220.5 120.27 219.863 120.682C218.742 121.407 217.9 122.322 217.037 123.315C216.752 120.488 215.944 117.703 215.756 114.871C217.47 115.13 219.263 114.859 220.821 114.097C221.404 113.813 222.01 113.382 222.104 112.74C222.214 111.99 221.512 111.304 220.762 111.196C220.012 111.089 219.266 111.416 218.63 111.827C217.478 112.572 216.622 113.516 215.734 114.541C215.7 113.832 215.706 113.121 215.773 112.405C215.909 110.955 216.355 109.548 217.023 108.241C218.64 108.972 220.486 109.19 222.227 108.848C222.863 108.723 223.56 108.462 223.816 107.866C224.116 107.17 223.614 106.327 222.917 106.029C222.22 105.732 221.415 105.856 220.694 106.09C219.372 106.518 218.29 107.223 217.152 107.997C218.275 105.91 219.967 104.093 221.879 102.787C223.416 103.267 225.088 103.31 226.646 102.9C227.273 102.734 227.951 102.43 228.169 101.819C228.424 101.106 227.87 100.296 227.155 100.043C226.441 99.7909 225.645 99.966 224.94 100.245C223.816 100.69 222.887 101.333 221.949 102.048C221.905 102.053 221.86 102.068 221.815 102.097C220.162 103.172 218.738 104.583 217.599 106.189C217.348 106.543 217.108 106.908 216.882 107.282C217.126 105.735 216.943 104.121 216.349 102.672C216.103 102.071 215.713 101.439 215.078 101.303C214.337 101.144 213.607 101.799 213.451 102.54C213.294 103.282 213.572 104.048 213.941 104.71C214.629 105.945 215.55 106.881 216.548 107.865C216.11 108.67 215.746 109.515 215.508 110.399C215.148 111.738 215.061 113.09 215.122 114.444C214.644 112.901 213.726 111.495 212.498 110.444C212.005 110.023 211.369 109.638 210.743 109.806C210.011 110.003 209.66 110.919 209.859 111.651C210.058 112.382 210.655 112.937 211.285 113.357C212.494 114.163 213.776 114.576 215.156 115.009C215.322 117.239 215.851 119.471 216.2 121.656C216.31 122.343 216.4 123.029 216.453 123.716C216.019 122.017 215.053 120.456 213.722 119.314C213.23 118.891 212.594 118.506 211.967 118.673C211.235 118.869 210.884 119.785 211.081 120.516C211.279 121.248 211.875 121.803 212.505 122.225C213.74 123.051 215.053 123.466 216.468 123.911C216.516 124.644 216.517 125.379 216.447 126.121C216.317 127.477 216.033 128.817 215.67 130.128C215.574 130.477 215.47 130.824 215.363 131.17C215.117 129.598 214.431 128.095 213.396 126.887C212.974 126.394 212.405 125.916 211.76 125.986C211.006 126.068 210.519 126.919 210.603 127.672C210.687 128.425 211.191 129.066 211.749 129.578C212.78 130.526 213.936 131.123 215.18 131.738C214.468 133.895 213.552 135.989 212.507 138.006C212.662 136.353 212.332 134.656 211.558 133.187C211.256 132.613 210.807 132.02 210.162 131.945C209.409 131.858 208.745 132.58 208.66 133.333C208.575 134.086 208.925 134.822 209.355 135.446C210.172 136.63 211.2 137.482 212.309 138.384C212.169 138.65 212.027 138.916 211.882 139.179C211.088 140.626 210.225 142.042 209.287 143.405C209.413 141.793 209.079 140.146 208.325 138.714C208.023 138.14 207.574 137.548 206.929 137.473C206.177 137.386 205.512 138.108 205.427 138.861C205.342 139.614 205.692 140.35 206.122 140.973C206.917 142.125 207.91 142.962 208.985 143.837C207.897 145.378 206.709 146.848 205.408 148.211C205.137 148.495 205.596 148.896 205.866 148.612C207.18 147.236 208.377 145.749 209.475 144.192C211.028 144.929 212.807 145.191 214.511 144.927C215.156 144.827 215.866 144.594 216.15 144.008ZM213.168 161.004L214.529 162.65C214.889 160.725 215.253 158.781 216.031 156.983C218.344 151.643 223.892 148.452 229.396 146.561C234.897 144.668 240.76 143.669 245.868 140.879C247.317 140.09 248.851 138.872 248.814 137.223C248.804 136.881 248.727 136.554 248.597 136.245C245.985 136.332 243.381 136.562 240.802 136.987C236.791 137.648 232.835 138.781 229.173 140.568C226.158 142.04 223.357 143.966 220.944 146.301C218.563 148.601 216.558 151.313 215.195 154.337C214.489 155.903 214.002 157.533 213.604 159.201C213.46 159.802 213.322 160.403 213.168 161.004Z" fill="#05836D"/>
<path d="M211.16 158.574L213.004 160.805L213.168 161.004C213.322 160.403 213.46 159.802 213.604 159.202C214.002 157.533 214.489 155.903 215.195 154.337C216.558 151.313 218.563 148.601 220.944 146.301C223.357 143.966 226.157 142.041 229.172 140.568C232.834 138.781 236.791 137.648 240.802 136.987C243.381 136.562 245.985 136.332 248.596 136.246C248.569 136.175 248.536 136.105 248.501 136.038C248.206 135.444 247.727 134.922 247.206 134.501C244.628 132.415 241.017 132.173 237.721 132.546C227.42 133.709 217.893 140.315 213.185 149.552C211.766 152.34 210.748 155.471 211.16 158.574Z" fill="#3EBA93"/>
<path d="M213.003 160.805L213.168 161.004C213.322 160.403 213.459 159.802 213.603 159.202C214.001 157.533 214.489 155.903 215.194 154.337C216.557 151.313 218.563 148.601 220.943 146.301C223.357 143.966 226.157 142.041 229.172 140.568C232.834 138.781 236.79 137.648 240.801 136.987C243.38 136.562 245.985 136.332 248.596 136.246C248.568 136.175 248.536 136.105 248.5 136.038C245.413 136.146 242.333 136.455 239.301 137.046C235.391 137.806 231.542 139.045 228.02 140.923C225.065 142.497 222.336 144.516 220.018 146.935C217.726 149.323 215.838 152.112 214.606 155.189C213.952 156.827 213.552 158.53 213.142 160.24C213.097 160.428 213.05 160.616 213.003 160.805Z" fill="white"/>
<path d="M84.8067 144.008C84.4751 143.324 84.9405 142.46 85.6267 142.135C86.3127 141.809 87.1262 141.902 87.86 142.107C89.0468 142.439 90.0559 142.994 91.0847 143.62C90.4405 142.676 89.8306 141.708 89.2531 140.725C88.8712 140.075 88.5035 139.416 88.1498 138.748C86.605 139.484 84.8373 139.747 83.1455 139.488C82.5044 139.39 81.7979 139.159 81.5166 138.575C81.1878 137.892 81.6534 137.028 82.3374 136.702C83.0215 136.375 83.8313 136.465 84.5613 136.668C85.7872 137.01 86.8218 137.591 87.8855 138.243C86.819 136.175 85.8976 134.031 85.1692 131.823C83.5469 132.282 81.7889 132.256 80.1836 131.74C79.566 131.541 78.905 131.201 78.7199 130.579C78.5037 129.853 79.1003 129.074 79.8275 128.86C80.5544 128.646 81.3398 128.864 82.0284 129.18C83.1444 129.693 84.0488 130.398 84.9618 131.177C84.2307 128.837 83.6866 126.344 83.8671 123.892C83.8709 123.841 83.877 123.79 83.881 123.739C82.1927 123.976 80.4343 123.701 78.9022 122.952C78.3193 122.667 77.7136 122.236 77.6193 121.595C77.5091 120.845 78.2109 120.159 78.9609 120.051C79.7109 119.943 80.4572 120.27 81.0937 120.682C82.2152 121.407 83.0567 122.322 83.9197 123.315C84.2054 120.488 85.0133 117.703 85.2013 114.871C83.4866 115.13 81.6943 114.859 80.1358 114.097C79.553 113.813 78.9473 113.382 78.8529 112.74C78.7427 111.99 79.4443 111.304 80.1946 111.196C80.9446 111.089 81.6908 111.416 82.3273 111.827C83.4789 112.572 84.3354 113.516 85.2231 114.541C85.2574 113.832 85.2508 113.121 85.1837 112.405C85.0476 110.955 84.6024 109.548 83.9336 108.241C82.317 108.972 80.4715 109.19 78.7302 108.848C78.0937 108.723 77.3973 108.462 77.1409 107.866C76.8413 107.17 77.3428 106.327 78.0398 106.029C78.7368 105.732 79.5422 105.856 80.263 106.09C81.585 106.518 82.6671 107.223 83.8051 107.997C82.6821 105.91 80.9903 104.093 79.0777 102.787C77.541 103.267 75.8688 103.31 74.3113 102.9C73.6841 102.734 73.0058 102.43 72.7878 101.819C72.5331 101.106 73.0872 100.296 73.8017 100.043C74.5163 99.7909 75.3121 99.966 76.0168 100.245C77.1409 100.69 78.0701 101.333 79.0084 102.048C79.052 102.053 79.0971 102.068 79.1421 102.097C80.7948 103.172 82.2187 104.583 83.358 106.189C83.6091 106.543 83.8487 106.908 84.0745 107.282C83.8313 105.735 84.0138 104.121 84.6079 102.672C84.8538 102.071 85.2444 101.439 85.8785 101.303C86.6195 101.144 87.3497 101.799 87.5063 102.54C87.6631 103.282 87.3851 104.048 87.0163 104.71C86.3281 105.945 85.4072 106.881 84.4086 107.865C84.8474 108.67 85.211 109.515 85.4485 110.399C85.8086 111.738 85.8963 113.09 85.8347 114.444C86.3131 112.901 87.2311 111.495 88.4589 110.444C88.9517 110.023 89.5878 109.638 90.2142 109.806C90.9459 110.003 91.2965 110.919 91.0977 111.651C90.8987 112.382 90.302 112.937 89.6716 113.357C88.4635 114.163 87.1808 114.576 85.8011 115.009C85.6346 117.239 85.1065 119.471 84.7566 121.656C84.6466 122.343 84.5567 123.029 84.5041 123.716C84.9383 122.017 85.9036 120.456 87.2351 119.314C87.7273 118.891 88.363 118.506 88.9896 118.673C89.7218 118.869 90.0734 119.785 89.8755 120.516C89.6775 121.248 89.0815 121.803 88.4516 122.225C87.2171 123.051 85.904 123.466 84.4889 123.911C84.441 124.644 84.4396 125.379 84.5105 126.121C84.64 127.477 84.9235 128.817 85.2869 130.128C85.3834 130.477 85.4866 130.824 85.5943 131.17C85.8394 129.598 86.5253 128.095 87.5608 126.887C87.9829 126.394 88.5521 125.916 89.197 125.986C89.9505 126.068 90.4381 126.919 90.3541 127.672C90.2701 128.425 89.766 129.066 89.2078 129.578C88.1767 130.526 87.0207 131.123 85.7769 131.738C86.4888 133.895 87.4053 135.989 88.4496 138.006C88.2946 136.353 88.6254 134.656 89.3991 133.187C89.7013 132.613 90.1504 132.02 90.7949 131.945C91.5477 131.858 92.2119 132.58 92.2968 133.333C92.3819 134.086 92.0322 134.822 91.6018 135.446C90.7847 136.63 89.7574 137.482 88.6476 138.384C88.7881 138.65 88.9302 138.916 89.0749 139.179C89.8691 140.626 90.7319 142.042 91.6704 143.405C91.5442 141.793 91.8778 140.146 92.6318 138.714C92.934 138.14 93.3831 137.548 94.0275 137.473C94.7804 137.386 95.4446 138.108 95.5297 138.861C95.6149 139.614 95.2652 140.35 94.8345 140.973C94.0399 142.125 93.0466 142.962 91.9718 143.837C93.0602 145.378 94.2484 146.848 95.5491 148.211C95.8201 148.495 95.3611 148.896 95.0905 148.612C93.7768 147.236 92.5801 145.749 91.4822 144.192C89.9292 144.929 88.1498 145.191 86.4455 144.927C85.8006 144.827 85.0907 144.594 84.8067 144.008ZM87.7887 161.004L86.4275 162.65C86.0674 160.725 85.7034 158.781 84.9255 156.983C82.613 151.643 77.0648 148.452 71.5608 146.561C66.0594 144.668 60.1971 143.669 55.0891 140.879C53.6399 140.09 52.1061 138.872 52.1432 137.223C52.1527 136.881 52.2295 136.554 52.3601 136.245C54.9717 136.332 57.5758 136.562 60.155 136.987C64.1661 137.648 68.1222 138.781 71.7842 140.568C74.7992 142.04 77.5995 143.966 80.0129 146.301C82.3933 148.601 84.399 151.313 85.7617 154.337C86.4677 155.903 86.9549 157.533 87.353 159.201C87.497 159.802 87.6343 160.403 87.7887 161.004Z" fill="#05836D"/>
<path d="M89.7963 158.574L87.9527 160.805L87.7882 161.004C87.6338 160.403 87.4966 159.802 87.3527 159.202C86.9547 157.533 86.4673 155.903 85.7615 154.337C84.3987 151.313 82.3929 148.601 80.0126 146.301C77.5992 143.966 74.7992 142.041 71.784 140.568C68.122 138.781 64.1657 137.648 60.1548 136.987C57.5756 136.562 54.9714 136.332 52.3599 136.246C52.3878 136.175 52.4199 136.105 52.4558 136.038C52.7498 135.444 53.2291 134.922 53.7508 134.501C56.3287 132.415 59.939 132.173 63.2355 132.546C73.5358 133.709 83.0632 140.315 87.7706 149.552C89.1908 152.34 90.2083 155.471 89.7963 158.574Z" fill="#3EBA93"/>
<path d="M87.9532 160.805L87.7887 161.004C87.6343 160.403 87.4971 159.802 87.3532 159.202C86.9551 157.533 86.4678 155.903 85.762 154.337C84.3992 151.313 82.3933 148.601 80.0131 146.301C77.5997 143.966 74.7996 142.041 71.7845 140.568C68.1224 138.781 64.1661 137.648 60.1553 136.987C57.576 136.562 54.9719 136.332 52.3604 136.246C52.3883 136.175 52.4204 136.105 52.4562 136.038C55.5431 136.146 58.6232 136.455 61.6551 137.046C65.5656 137.806 69.4142 139.045 72.9367 140.923C75.8914 142.497 78.6203 144.516 80.9389 146.935C83.23 149.323 85.1189 152.112 86.3508 155.189C87.0049 156.827 87.404 158.53 87.8147 160.24C87.8593 160.428 87.9064 160.616 87.9532 160.805ZM228.391 115.851C228.425 115.852 228.459 115.854 228.492 115.855C240.015 116.414 237.394 106.396 231.836 109.114C231.836 109.052 231.833 108.991 231.827 108.93C231.675 107.173 229.388 105.278 227.564 106.457C224.469 108.458 225.9 112.758 228.391 115.851ZM228.47 94.6274C228.486 94.6254 228.501 94.6234 228.516 94.6212C233.768 93.935 231.767 89.6233 229.478 91.3032C229.473 91.2755 229.467 91.2482 229.459 91.2209C229.248 90.4397 228.06 89.77 227.332 90.4507C226.096 91.6069 227.093 93.4327 228.47 94.6274ZM242.721 120.885C242.736 120.891 242.751 120.896 242.765 120.901C247.722 122.764 247.984 118.018 245.173 118.425C245.182 118.398 245.189 118.371 245.195 118.343C245.376 117.554 244.642 116.405 243.68 116.664C242.046 117.103 242.068 119.183 242.721 120.885ZM74.8685 117.98C74.8344 117.979 74.8003 117.978 74.7673 117.977C63.2343 117.683 66.5881 107.887 71.9303 111.007C71.9343 110.946 71.9417 110.885 71.9525 110.824C72.2336 109.084 74.6547 107.363 76.3865 108.672C79.3258 110.897 77.5806 115.079 74.8685 117.98ZM81.0238 89.0136C81.0084 89.0105 80.9932 89.0072 80.9782 89.0039C75.792 87.9321 78.1049 83.7797 80.2641 85.6241C80.2709 85.5968 80.2791 85.57 80.2889 85.5434C80.5577 84.78 81.7916 84.1995 82.4672 84.9324C83.6142 86.1768 82.4853 87.924 81.0238 89.0136ZM60.2054 121.943C60.1905 121.947 60.1753 121.952 60.1608 121.956C55.0795 123.448 55.169 118.695 57.9418 119.308C57.935 119.281 57.9297 119.254 57.9257 119.225C57.8041 118.425 58.6203 117.333 59.5612 117.662C61.1584 118.221 60.9832 120.294 60.2054 121.943Z" fill="white"/>
<path d="M210.804 72.4452L209.396 72.1395C209.373 72.1344 209.355 72.1161 209.351 72.0931L209.074 70.6797C209.061 70.6166 208.972 70.6157 208.958 70.6786L208.652 72.086C208.648 72.1091 208.629 72.1269 208.606 72.1315L207.192 72.4082C207.129 72.4205 207.128 72.5105 207.191 72.5241L208.598 72.8299C208.622 72.8349 208.64 72.8532 208.644 72.8763L208.921 74.2896C208.933 74.3527 209.023 74.3536 209.037 74.2907L209.342 72.8833C209.347 72.8602 209.366 72.8424 209.389 72.8378L210.802 72.5611C210.865 72.5488 210.866 72.4588 210.804 72.4452Z" fill="#FFC32E"/>
<path d="M218.047 65.5964L216.005 65.1528C215.971 65.1456 215.945 65.1189 215.938 65.0853L215.537 63.0341C215.519 62.9426 215.389 62.9413 215.369 63.0324L214.925 65.0747C214.918 65.1082 214.891 65.1341 214.857 65.1407L212.807 65.5426C212.715 65.5606 212.714 65.691 212.805 65.7108L214.847 66.1544C214.881 66.1617 214.907 66.1883 214.913 66.2217L215.315 68.2729C215.333 68.3644 215.463 68.3657 215.483 68.2747L215.927 66.2323C215.934 66.1989 215.961 66.1729 215.994 66.1663L218.046 65.7647C218.137 65.7469 218.138 65.6162 218.047 65.5964Z" fill="#1561A3"/>
<path d="M206.937 61.2909L203.9 60.631C203.85 60.6203 203.811 60.5809 203.802 60.5308L203.204 57.4804C203.178 57.3442 202.984 57.3423 202.954 57.4777L202.294 60.5151C202.283 60.5651 202.244 60.6035 202.194 60.6134L199.144 61.2106C199.008 61.2372 199.006 61.4314 199.141 61.4607L202.179 62.1205C202.229 62.1313 202.267 62.1706 202.277 62.2208L202.874 65.2711C202.901 65.4073 203.095 65.4093 203.124 65.2738L203.784 62.2364C203.795 62.1867 203.834 62.148 203.884 62.1381L206.934 61.5409C207.071 61.5143 207.073 61.3203 206.937 61.2909Z" fill="#E74F5A"/>
<path d="M93.9616 72.4452L95.369 72.1395C95.3918 72.1344 95.4101 72.1161 95.4145 72.0931L95.6912 70.6797C95.7037 70.6166 95.7935 70.6157 95.8071 70.6786L96.1128 72.086C96.1176 72.1091 96.1361 72.1269 96.1594 72.1315L97.5728 72.4082C97.6359 72.4205 97.6368 72.5105 97.5741 72.5241L96.1667 72.8299C96.1436 72.8349 96.1256 72.8532 96.1212 72.8763L95.8445 74.2896C95.8319 74.3527 95.7422 74.3536 95.7286 74.2907L95.4229 72.8833C95.4178 72.8602 95.3995 72.8424 95.3762 72.8378L93.9629 72.5611C93.8998 72.5488 93.8989 72.4588 93.9616 72.4452Z" fill="#FFC32E"/>
<path d="M86.718 65.5964L88.7603 65.1528C88.7938 65.1456 88.82 65.1189 88.8266 65.0853L89.2279 63.0341C89.2458 62.9426 89.3764 62.9413 89.3962 63.0324L89.84 65.0747C89.8473 65.1082 89.8737 65.1341 89.9076 65.1407L91.9585 65.5423C92.05 65.5604 92.0515 65.6908 91.9603 65.7106L89.9179 66.1542C89.8845 66.1615 89.8583 66.1881 89.8519 66.2215L89.4503 68.2727C89.4325 68.3642 89.3018 68.3655 89.282 68.2744L88.8382 66.2321C88.8312 66.1986 88.8046 66.1727 88.7709 66.1661L86.7197 65.7645C86.6282 65.7469 86.6269 65.6162 86.718 65.5964Z" fill="#1561A3"/>
<path d="M97.8282 61.2909L100.866 60.631C100.915 60.6203 100.954 60.5809 100.964 60.5308L101.561 57.4804C101.588 57.3442 101.782 57.3423 101.811 57.4777L102.471 60.5151C102.482 60.5651 102.521 60.6035 102.571 60.6134L105.622 61.2106C105.758 61.2372 105.76 61.4314 105.624 61.4607L102.587 62.1205C102.537 62.1313 102.498 62.1706 102.489 62.2208L101.891 65.2711C101.865 65.4073 101.671 65.4093 101.641 65.2738L100.981 62.2364C100.97 62.1867 100.931 62.148 100.881 62.1381L97.8308 61.5409C97.6947 61.5143 97.6925 61.3203 97.8282 61.2909Z" fill="#E74F5A"/>
<path d="M171.179 165.672H127.23L123.025 126.064H175.384L171.179 165.672Z" fill="#E74F5A"/>
<path d="M154.434 130.404H146.024V165.672H154.434V130.404Z" fill="#AFC0C9"/>
<path d="M153.41 130.404H145V165.672H153.41V130.404Z" fill="#FFC32E"/>
<path d="M123.025 126.064L123.761 131.491L174.609 133.366L175.384 126.064H123.025Z" fill="#E3BCBC"/>
<path d="M176.966 121.88V130.402H121.443V121.88C121.443 121.718 121.575 121.588 121.737 121.588H176.672C176.834 121.588 176.966 121.718 176.966 121.88Z" fill="#E74F5A"/>
<path d="M176.672 121.587H121.737C121.575 121.587 121.443 121.718 121.443 121.88V124.131C121.443 123.969 121.575 123.838 121.737 123.838L176.965 121.88C176.965 121.718 176.834 121.587 176.672 121.587Z" fill="#E04457"/>
<path d="M168.165 121.588C168.161 121.625 168.159 121.661 168.155 121.698C168.152 121.742 168.148 121.784 168.145 121.827C168.141 121.864 168.138 121.901 168.134 121.94C168.13 121.982 168.125 122.024 168.12 122.067C168.117 122.104 168.112 122.141 168.108 122.179C168.103 122.222 168.098 122.264 168.092 122.306C168.088 122.344 168.083 122.382 168.078 122.419C168.073 122.461 168.067 122.503 168.061 122.545C168.055 122.582 168.049 122.619 168.043 122.658C168.038 122.7 168.031 122.742 168.024 122.784C168.018 122.821 168.012 122.858 168.005 122.894C167.998 122.937 167.991 122.979 167.983 123.021C167.977 123.057 167.97 123.095 167.963 123.131C167.955 123.174 167.947 123.216 167.937 123.258C167.93 123.294 167.923 123.331 167.915 123.368C167.907 123.41 167.897 123.452 167.888 123.495C167.88 123.53 167.872 123.566 167.864 123.601C167.854 123.644 167.844 123.686 167.833 123.729C167.825 123.764 167.817 123.799 167.808 123.835C167.797 123.877 167.785 123.919 167.775 123.961C167.766 123.996 167.756 124.031 167.747 124.066C167.735 124.109 167.723 124.152 167.711 124.195C167.702 124.228 167.692 124.262 167.682 124.295C167.669 124.34 167.655 124.385 167.641 124.43C167.632 124.461 167.622 124.491 167.613 124.523C167.597 124.571 167.58 124.62 167.565 124.667C167.556 124.694 167.548 124.721 167.538 124.748C167.514 124.819 167.489 124.889 167.464 124.959C167.463 124.962 167.461 124.967 167.459 124.97C167.12 125.897 166.152 128.535 164.084 129.022C163.991 129.044 163.901 129.06 163.81 129.068C163.787 129.071 163.763 129.073 163.74 129.074C163.718 129.075 163.695 129.076 163.67 129.076C163.624 129.077 163.575 129.076 163.526 129.073C163.5 129.072 163.474 129.069 163.449 129.067C163.346 129.055 163.235 129.036 163.112 129.004C163.059 128.991 163.004 128.976 162.947 128.959C162.803 128.916 162.643 128.859 162.46 128.788C162.418 128.771 162.374 128.753 162.328 128.736C162.124 128.652 161.892 128.552 161.628 128.432C161.517 128.38 161.399 128.326 161.274 128.268C160.918 128.101 160.509 127.904 160.033 127.672C159.61 127.464 159.213 127.268 158.841 127.082C157.848 126.584 157.025 126.151 156.328 125.757C156.154 125.66 155.987 125.563 155.828 125.47C155.749 125.422 155.67 125.375 155.595 125.33C155.28 125.139 154.994 124.956 154.731 124.776C155.633 126.683 156.75 128.558 158.064 130.402C160.019 133.145 162.409 135.82 165.183 138.437L159.227 137.757L159.079 137.741L158.016 142.738C155.359 138.544 153.065 134.41 151.552 130.402C151.096 129.198 150.712 128.006 150.409 126.826C150.042 128.033 149.642 129.226 149.209 130.402C147.632 134.7 145.628 138.801 143.266 142.737L142.203 137.74L136.099 138.437C139.026 135.891 141.552 133.223 143.569 130.402C145.14 128.203 146.4 125.911 147.299 123.51C146.933 123.862 146.537 124.194 146.07 124.533C145.951 124.62 145.829 124.706 145.7 124.792C145.636 124.837 145.571 124.88 145.503 124.924C145.303 125.056 145.089 125.191 144.861 125.33C144.785 125.375 144.707 125.422 144.628 125.47C144.468 125.563 144.301 125.66 144.128 125.758C143.43 126.152 142.607 126.584 141.614 127.082C141.242 127.268 140.846 127.464 140.423 127.672C139.906 127.924 139.468 128.135 139.09 128.311C139.027 128.34 138.966 128.368 138.906 128.396C138.132 128.75 137.634 128.943 137.253 129.025C137.195 129.038 137.139 129.049 137.085 129.057C137.005 129.068 136.929 129.075 136.856 129.077C136.832 129.078 136.809 129.078 136.785 129.077C136.643 129.074 136.51 129.054 136.372 129.022C136.302 129.006 136.232 128.986 136.164 128.965C136.142 128.958 136.121 128.949 136.099 128.941C136.053 128.926 136.008 128.91 135.964 128.892C135.939 128.883 135.914 128.871 135.89 128.862C135.849 128.844 135.808 128.826 135.769 128.807C135.744 128.795 135.721 128.783 135.697 128.771C135.657 128.75 135.618 128.729 135.58 128.708C135.558 128.695 135.534 128.682 135.514 128.67C135.472 128.645 135.431 128.618 135.39 128.592C135.372 128.58 135.355 128.569 135.337 128.558C135.222 128.479 135.111 128.393 135.005 128.301C134.992 128.291 134.981 128.279 134.969 128.269C134.928 128.233 134.888 128.196 134.849 128.16L134.805 128.116C134.769 128.081 134.734 128.045 134.699 128.009C134.683 127.994 134.669 127.978 134.656 127.963C134.619 127.925 134.586 127.886 134.551 127.847C134.539 127.834 134.527 127.821 134.516 127.807C134.476 127.762 134.438 127.715 134.4 127.668C134.394 127.66 134.389 127.654 134.383 127.646C134.247 127.476 134.123 127.297 134.007 127.117C134.006 127.114 134.004 127.111 134.003 127.109C133.965 127.052 133.93 126.993 133.895 126.936C133.893 126.933 133.891 126.929 133.889 126.926C133.434 126.162 133.15 125.392 132.997 124.971C132.605 123.9 132.377 122.745 132.292 121.588H168.165Z" fill="#E3BCBC"/>
<path d="M104.627 142.995C98.6284 139.972 95.7606 129.393 96.0208 124.126C96.4692 115.031 95.1613 93.1371 96.1261 89.7526C97.1511 86.1555 98.368 84.4734 100.55 80.81C103.459 75.9253 105.637 79.1385 105.505 80.7088C105.108 85.4776 103.897 87.7113 102.916 89.6618C102.699 90.0915 102.494 90.509 102.312 90.9366C102.492 92.5771 102.655 96.3128 102.986 100.885C103.674 110.402 105.09 123.548 108.891 128.99C114.52 137.047 110.625 146.018 104.627 142.995Z" fill="#FFC0B5"/>
<path d="M99.2622 109.033C99.6055 107.795 101.118 100.61 101.679 98.8872C102.434 96.5694 101.422 90.856 101.422 90.856C102.232 90.6948 102.916 89.6617 102.916 89.6617C102.699 90.0915 102.494 90.509 102.313 90.9365C102.492 92.5771 102.655 96.3128 102.986 100.885L99.2622 109.033Z" fill="#FAAB9E"/>
<path d="M132.467 81.3205C129.936 85.0894 126.605 85.926 123.167 87.0418C123.167 87.0418 123.165 87.0418 123.163 87.044C122.167 87.3664 121.163 87.7135 120.167 88.162C117.733 91.6434 114.631 94.6023 111.505 98.3919C111.637 101.57 111.265 103.998 110.749 106.258C109.823 110.297 108.431 113.804 108.598 120.102C108.86 129.927 100.67 135.272 97.3267 129.445C93.9836 123.62 101.502 100.718 103.577 95.8691C105.561 91.2326 112.966 85.1578 115.693 82.9326C119.01 80.2278 124.39 79.9469 128.275 78.6761C132.895 77.1631 133.345 80.0125 132.467 81.3205Z" fill="#FFC0B5"/>
<path d="M120.167 88.1618C117.733 91.6432 114.631 94.6021 111.505 98.3917C111.638 101.57 111.266 103.997 110.749 106.258L105.201 111.297C108.089 105.378 110.398 97.687 110.398 97.687C112.756 96.785 119.359 88.8884 119.171 87.298C120.394 87.7711 123.039 87.077 123.163 87.0438C122.167 87.3662 121.163 87.7133 120.167 88.1618Z" fill="#FAAB9E"/>
<path d="M144.038 97.7593C140.162 100.264 130.37 98.0818 130.37 98.0818C126.502 100.46 122.741 102.512 119.349 103.444L116.904 109.725L112.042 122.215C112.042 122.215 100.597 134.342 99.0148 129.387C97.4321 124.432 110.162 101.38 112.112 99.15C114.063 96.9205 127.175 91.1661 128.33 91.2323C130.049 91.3335 136.957 92.3461 142.139 93.249C148.044 94.2757 145.081 97.0859 144.038 97.7593Z" fill="#FFC0B5"/>
<path d="M130.37 98.0815C126.502 100.46 122.742 102.512 119.349 103.443L116.904 109.725L109.935 111.297C115.047 109.722 118.605 101.636 118.605 101.636C120.438 102.472 130.37 98.0815 130.37 98.0815Z" fill="#FAAB9E"/>
<path d="M153.788 120.844C153.795 121.023 153.775 121.194 153.733 121.357C153.729 121.377 153.724 121.396 153.718 121.416C153.709 121.451 153.698 121.484 153.687 121.517C153.68 121.542 153.671 121.566 153.66 121.588C153.645 121.627 153.627 121.667 153.61 121.707C153.54 121.858 153.445 122.001 153.333 122.131C153.331 122.131 153.331 122.133 153.328 122.133C153.317 122.146 153.304 122.16 153.291 122.173C153.177 122.298 153.04 122.413 152.886 122.512C152.75 122.604 152.6 122.681 152.435 122.749C152.081 122.896 151.663 122.989 151.186 123.017C150.92 123.035 150.634 123.031 150.331 123.004C150.236 122.995 150.137 122.984 150.038 122.971C149.827 122.945 149.607 122.907 149.38 122.859C149.24 122.828 149.095 122.793 148.949 122.753C148.932 122.749 148.914 122.745 148.897 122.738C148.413 122.604 147.883 122.393 147.328 122.131C147.047 121.999 146.761 121.852 146.471 121.696C146.44 121.68 146.409 121.663 146.378 121.645C146.343 121.627 146.308 121.608 146.273 121.588C145.813 121.333 145.345 121.053 144.878 120.761C144.77 120.695 144.663 120.627 144.557 120.558C144.221 120.341 143.886 120.119 143.561 119.896C143.49 119.848 143.422 119.802 143.354 119.753C143.171 119.628 142.991 119.503 142.815 119.377C140.761 117.921 139.155 116.567 139.155 116.567C137.233 116.487 134.213 116.045 131.622 115.612C128.891 115.154 126.634 114.706 126.634 114.706C126.634 114.706 126.632 114.706 126.63 114.708C126.46 114.829 120.982 118.698 117.918 123.908C116.4 126.488 114.995 129.616 114.163 133.385C112.694 140.039 116.209 145.973 121.437 150.541C121.446 150.55 121.45 150.552 121.45 150.552C122.858 151.784 124.391 152.914 125.983 153.932C130.164 156.609 134.757 158.516 138.61 159.426C140.996 159.99 143.171 160.948 144.999 162.141C145.355 162.371 145.696 162.611 146.024 162.862C147.161 163.722 148.129 164.676 148.881 165.673C149.534 166.535 150.025 167.428 150.331 168.321C150.564 169.007 150.687 169.693 150.687 170.364C150.687 171.013 150.573 171.649 150.331 172.256V172.258C150.326 172.262 150.324 172.267 150.322 172.273C150.232 172.502 150.106 172.68 149.954 172.808C148.707 173.87 145.52 171.838 141.79 169.88C140.761 169.344 139.692 168.809 138.61 168.349C135.924 167.21 131.994 167.025 128.453 167.27C125.336 167.487 122.521 168.037 121.136 168.554C111.192 172.273 103.472 170.177 96.2338 172.838C95.464 173.122 94.4149 173.802 93.1568 174.789C92.9303 174.968 92.6972 175.157 92.4574 175.352C92.2111 175.555 91.9581 175.768 91.6986 175.99C91.1928 176.424 90.6627 176.892 90.1128 177.393C89.5498 177.906 88.9625 178.454 88.3577 179.03C88.1796 179.199 88.0014 179.371 87.821 179.542C82.7866 184.396 76.5601 191.122 70.9647 197.369C70.9274 197.413 70.8878 197.457 70.8504 197.498C70.8196 197.492 70.791 197.485 70.7602 197.481C68.7675 197.072 66.8167 196.564 64.9054 195.939C64.7602 195.891 64.6172 195.844 64.4721 195.796C60.7485 194.538 57.1854 192.836 53.8115 190.588V170.421C60.6187 166.816 68.0725 162.743 74.4046 158.995C74.5674 158.899 74.7323 158.802 74.8951 158.705C77.1231 157.379 79.2059 156.097 81.0601 154.893C84.909 152.397 87.7793 150.242 88.9559 148.744C91.5579 145.44 94.3181 131.767 96.0205 124.119V124.117C96.159 123.499 96.291 122.921 96.4142 122.391C96.5373 121.86 96.6539 121.379 96.7595 120.957C96.7595 120.954 96.7595 120.954 96.7595 120.952C96.7595 120.95 96.7595 120.95 96.7595 120.948C96.8255 120.688 96.8892 120.446 96.9486 120.231C97.3907 118.614 100.063 116.593 103.611 114.556H103.613C103.866 114.411 104.123 114.264 104.385 114.119H104.387C105.962 113.245 107.68 112.372 109.435 111.534L109.437 111.532C109.604 111.453 109.769 111.374 109.938 111.295L109.941 111.292C110.517 111.02 111.097 110.751 111.676 110.487C111.678 110.487 111.68 110.487 111.68 110.487C111.682 110.487 111.682 110.485 111.685 110.485C113.724 109.557 115.749 108.688 117.601 107.932H117.603C121.674 106.262 124.901 105.121 125.543 105.006C129.141 104.358 140.943 107.672 142.371 109.02C144.137 110.694 147.817 113.973 150.331 116.294C150.41 116.369 150.491 116.441 150.568 116.514C150.579 116.525 150.592 116.536 150.603 116.547C150.676 116.613 150.746 116.679 150.814 116.742C150.841 116.767 150.867 116.793 150.894 116.817C150.894 116.817 150.894 116.819 150.896 116.819C150.907 116.828 150.916 116.839 150.927 116.848C150.99 116.907 151.054 116.967 151.118 117.026C151.182 117.086 151.243 117.143 151.303 117.2C151.309 117.207 151.316 117.211 151.323 117.218C151.338 117.235 151.355 117.251 151.373 117.264C151.375 117.266 151.377 117.268 151.377 117.27C151.404 117.295 151.428 117.319 151.454 117.343C151.56 117.444 151.663 117.541 151.76 117.633C151.868 117.737 151.967 117.833 152.062 117.926C152.099 117.961 152.134 117.996 152.167 118.029C152.202 118.062 152.235 118.095 152.268 118.128C152.358 118.216 152.44 118.3 152.512 118.374H152.515C152.526 118.385 152.534 118.396 152.545 118.407C152.62 118.487 152.686 118.555 152.741 118.616C152.752 118.63 152.763 118.641 152.772 118.654L152.774 118.656C152.946 118.849 153.095 119.041 153.218 119.23C153.247 119.274 153.276 119.318 153.302 119.362C153.322 119.393 153.339 119.421 153.355 119.45C153.361 119.463 153.368 119.474 153.375 119.485C153.39 119.509 153.403 119.534 153.416 119.558C153.436 119.597 153.456 119.637 153.476 119.674C153.507 119.731 153.531 119.786 153.555 119.844C153.614 119.976 153.66 120.108 153.696 120.235C153.707 120.277 153.718 120.319 153.726 120.358C153.737 120.404 153.746 120.448 153.755 120.495C153.762 120.53 153.766 120.565 153.77 120.602C153.773 120.611 153.773 120.62 153.775 120.629C153.779 120.662 153.781 120.695 153.784 120.728C153.784 120.732 153.786 120.737 153.784 120.739C153.786 120.774 153.788 120.809 153.788 120.844Z" fill="#FFC0B5"/>
<path d="M128.453 167.27C125.336 167.488 122.521 168.037 121.135 168.554C111.192 172.273 103.472 170.177 96.2337 172.839C95.4639 173.122 94.4148 173.802 93.1567 174.79C92.9302 174.968 92.6971 175.157 92.4573 175.353C92.211 175.555 91.9581 175.768 91.6985 175.99C91.1927 176.424 90.6626 176.892 90.1128 177.394C89.5497 177.906 88.9625 178.454 88.3576 179.03C88.1795 179.199 88.0013 179.371 87.821 179.543C82.7865 184.397 76.56 191.122 70.9647 197.369C70.9273 197.413 70.8877 197.457 70.8503 197.499C70.8195 197.492 70.7909 197.485 70.7601 197.481C68.7674 197.072 66.8166 196.564 64.9053 195.939C72.2403 189.728 79.8899 182.78 85.1839 177.695C87.3657 175.601 89.1472 173.824 90.3437 172.544C90.8913 171.957 91.3158 171.475 91.5996 171.114C95.9654 165.574 110.114 170.173 117.148 167.27C122.726 164.971 128.453 167.27 128.453 167.27ZM114.162 133.385C112.693 140.038 116.21 145.973 121.437 150.541C121.051 150.25 111.016 142.553 111.621 131.86C112.232 121.064 126.355 114.829 126.63 114.709C126.46 114.828 120.981 118.699 117.919 123.908C116.4 126.488 114.995 129.616 114.162 133.385Z" fill="#FAAB9E"/>
<path d="M153.611 121.707C151.85 122.444 149.285 120.482 148.175 119.518C147.837 119.224 147.77 118.73 148.011 118.353C148.513 117.569 149.462 116.389 150.569 116.514C151.59 117.461 152.389 118.225 152.741 118.616C153.77 119.765 154.003 120.884 153.611 121.707Z" fill="#FFD9E2"/>
<path d="M149.954 172.809C148.708 173.871 145.522 171.838 141.79 169.881C141.986 169.356 142.315 168.815 142.86 168.474C144.057 167.728 149.276 170.844 149.954 172.809Z" fill="#FFE3DE"/>
<path d="M196.033 142.995C202.031 139.972 204.899 129.393 204.639 124.126C204.191 115.031 205.499 93.1371 204.534 89.7526C203.509 86.1555 202.292 84.4734 200.11 80.81C197.201 75.9253 195.023 79.1385 195.155 80.7088C195.552 85.4776 196.763 87.7113 197.744 89.6618C197.961 90.0915 198.166 90.509 198.347 90.9366C198.168 92.5771 198.004 96.3128 197.674 100.885C196.986 110.402 195.57 123.548 191.768 128.99C186.14 137.047 190.035 146.018 196.033 142.995Z" fill="#FFC0B5"/>
<path d="M201.398 109.033C201.055 107.795 199.542 100.61 198.981 98.8872C198.227 96.5694 199.238 90.856 199.238 90.856C198.428 90.6948 197.744 89.6617 197.744 89.6617C197.961 90.0915 198.166 90.509 198.348 90.9365C198.168 92.5771 198.004 96.3128 197.674 100.885L201.398 109.033Z" fill="#FAAB9E"/>
<path d="M168.193 81.3205C170.724 85.0894 174.055 85.926 177.493 87.0418C177.493 87.0418 177.495 87.0418 177.497 87.044C178.493 87.3664 179.497 87.7135 180.493 88.162C182.927 91.6434 186.028 94.6023 189.155 98.3919C189.023 101.57 189.394 103.998 189.911 106.258C190.837 110.297 192.229 113.804 192.062 120.102C191.8 129.927 199.99 135.272 203.333 129.445C206.676 123.62 199.157 100.718 197.083 95.8691C195.099 91.2326 187.694 85.1578 184.967 82.9326C181.65 80.2278 176.27 79.9469 172.385 78.6761C167.765 77.1631 167.315 80.0125 168.193 81.3205Z" fill="#FFC0B5"/>
<path d="M180.493 88.1618C182.927 91.6432 186.029 94.6021 189.155 98.3917C189.023 101.57 189.395 103.997 189.911 106.258L195.459 111.297C192.571 105.378 190.262 97.687 190.262 97.687C187.904 96.785 181.301 88.8884 181.489 87.298C180.266 87.7711 177.621 87.077 177.497 87.0438C178.493 87.3662 179.497 87.7133 180.493 88.1618Z" fill="#FAAB9E"/>
<path d="M156.622 97.7593C160.498 100.264 170.29 98.0818 170.29 98.0818C174.158 100.46 177.919 102.512 181.312 103.444L183.756 109.725L188.618 122.215C188.618 122.215 200.063 134.342 201.645 129.387C203.228 124.432 190.498 101.38 188.548 99.15C186.597 96.9205 173.485 91.1661 172.33 91.2323C170.611 91.3335 163.703 92.3461 158.521 93.249C152.616 94.2757 155.579 97.0859 156.622 97.7593Z" fill="#FFC0B5"/>
<path d="M170.29 98.0815C174.158 100.46 177.918 102.512 181.311 103.443L183.756 109.725L190.725 111.297C185.613 109.722 182.055 101.636 182.055 101.636C180.222 102.472 170.29 98.0815 170.29 98.0815Z" fill="#FAAB9E"/>
<path d="M252.7 173.494V180.202C246.472 184.867 239.044 188.358 230.977 190.72C230.658 190.812 230.339 190.904 230.018 190.992C228.384 191.452 226.723 191.863 225.043 192.231C220.886 187.691 216.656 183.235 213.027 179.725C212.647 179.358 212.271 178.999 211.906 178.654C210.696 177.512 209.568 176.494 208.547 175.638C208.263 175.399 207.986 175.172 207.72 174.959C206.365 173.879 205.241 173.138 204.428 172.838C197.189 170.177 189.469 172.273 179.526 168.554C178.138 168.037 175.325 167.487 172.206 167.27C168.667 167.025 164.733 167.21 162.052 168.349C160.967 168.809 159.901 169.344 158.871 169.88C155.139 171.838 151.952 173.87 150.707 172.808C150.553 172.68 150.43 172.502 150.335 172.273C150.335 172.267 150.331 172.262 150.331 172.258V172.256C149.838 171.02 149.869 169.671 150.331 168.321C150.637 167.428 151.127 166.535 151.78 165.673C152.244 165.057 152.792 164.459 153.41 163.887C153.731 163.588 154.074 163.297 154.435 163.016C156.478 161.419 159.104 160.121 162.052 159.426C165.177 158.687 168.791 157.293 172.274 155.362C174.722 154.009 177.102 152.391 179.209 150.552C179.209 150.552 179.214 150.55 179.222 150.541C184.45 145.973 187.967 140.039 186.498 133.385C185.664 129.616 184.259 126.488 182.741 123.908C181.785 122.278 180.593 120.783 179.398 119.49C179.04 119.1 178.681 118.731 178.329 118.383C176.161 116.23 174.234 114.853 174.041 114.717L174.038 114.712C174.036 114.71 174.034 114.71 174.032 114.708C174.03 114.708 174.03 114.708 174.03 114.708L174.027 114.706C174.027 114.706 170.482 115.41 166.901 115.955C166.226 116.056 165.551 116.153 164.898 116.239C163.624 116.404 162.436 116.529 161.506 116.567C161.506 116.567 160.114 117.739 158.264 119.078C158.145 119.162 158.024 119.25 157.901 119.338C157.103 119.905 156.236 120.49 155.37 121.016C155.299 121.06 155.229 121.102 155.159 121.143C154.901 121.3 154.644 121.447 154.389 121.588C154.332 121.619 154.274 121.652 154.217 121.68C153.918 121.843 153.621 121.995 153.333 122.131C153.331 122.131 153.331 122.133 153.329 122.133C153.313 122.14 153.3 122.146 153.285 122.153C153.1 122.241 152.92 122.32 152.741 122.395C152.381 122.545 152.035 122.665 151.712 122.753C151.677 122.762 151.644 122.771 151.611 122.78C151.472 122.815 151.336 122.848 151.202 122.874C150.898 122.938 150.606 122.98 150.331 123.004C150.225 123.013 150.124 123.02 150.023 123.022C149.625 123.039 149.26 123.015 148.93 122.954C148.826 122.934 148.725 122.912 148.629 122.885C148.068 122.736 147.63 122.474 147.329 122.131C147.217 122.001 147.122 121.858 147.049 121.707C147.032 121.669 147.016 121.632 147.001 121.594C146.999 121.592 146.999 121.59 146.999 121.588C146.955 121.478 146.922 121.361 146.902 121.24C146.869 121.058 146.862 120.866 146.884 120.666C146.891 120.567 146.909 120.464 146.935 120.36C146.937 120.347 146.939 120.334 146.944 120.319H146.946C146.953 120.286 146.961 120.255 146.97 120.222C146.994 120.134 147.023 120.046 147.06 119.956C147.063 119.945 147.067 119.934 147.074 119.923C147.142 119.751 147.23 119.575 147.335 119.397C147.337 119.395 147.34 119.391 147.342 119.386C147.348 119.377 147.353 119.371 147.357 119.362C147.388 119.314 147.421 119.263 147.454 119.215C147.557 119.056 147.678 118.898 147.817 118.737C147.839 118.711 147.863 118.682 147.887 118.654V118.652C147.898 118.641 147.909 118.627 147.92 118.616C147.942 118.592 147.967 118.566 147.991 118.539C148.013 118.515 148.037 118.491 148.059 118.465C148.061 118.465 148.061 118.465 148.061 118.465C148.085 118.438 148.112 118.412 148.14 118.383C148.147 118.374 148.156 118.366 148.164 118.357C148.261 118.258 148.369 118.148 148.492 118.029C148.516 118.007 148.541 117.983 148.565 117.959C148.567 117.959 148.567 117.959 148.567 117.959V117.957C148.567 117.957 148.567 117.957 148.569 117.957C148.624 117.899 148.681 117.844 148.741 117.787C149.106 117.433 149.554 117.013 150.056 116.547C150.067 116.536 150.08 116.525 150.091 116.514C150.124 116.485 150.155 116.454 150.188 116.424C150.234 116.382 150.282 116.338 150.331 116.294C152.843 113.973 156.522 110.694 158.291 109.02C159.716 107.672 171.52 104.358 175.116 105.006C175.76 105.121 178.987 106.262 183.058 107.932C184.91 108.688 186.938 109.555 188.975 110.485C188.977 110.485 188.977 110.487 188.979 110.487C189.56 110.751 190.142 111.02 190.719 111.292C190.721 111.292 190.721 111.295 190.721 111.295C190.89 111.374 191.06 111.453 191.225 111.534H191.227C192.984 112.374 194.7 113.245 196.274 114.121C196.536 114.266 196.796 114.411 197.049 114.556C200.596 116.593 203.269 118.614 203.711 120.231C203.77 120.451 203.834 120.69 203.902 120.957V120.959C204.115 121.81 204.364 122.89 204.639 124.126V124.128C206.343 131.778 209.104 145.443 211.703 148.744C212.926 150.299 215.979 152.566 220.057 155.188C221.922 156.387 224 157.66 226.217 158.973C226.411 159.088 226.604 159.202 226.8 159.319C234.914 164.094 244.754 169.359 252.7 173.494Z" fill="#FFC0B5"/>
<path d="M230.018 190.992C228.383 191.452 226.723 191.863 225.043 192.231C220.886 187.691 216.656 183.235 213.027 179.725C212.647 179.358 212.271 178.999 211.905 178.654C210.696 177.512 209.567 176.494 208.547 175.638C208.263 175.399 207.986 175.172 207.72 174.959C206.365 173.879 205.241 173.138 204.427 172.839C197.189 170.177 189.469 172.273 179.526 168.554C178.138 168.037 175.325 167.487 172.206 167.27C172.206 167.27 177.933 164.971 183.511 167.27C190.545 170.173 204.694 165.574 209.062 171.114C209.387 171.528 209.9 172.104 210.57 172.814C211.806 174.116 213.575 175.874 215.71 177.921C219.601 181.649 224.71 186.336 230.018 190.992ZM186.498 133.385C187.967 140.038 184.45 145.973 179.222 150.541C179.609 150.25 189.644 142.553 189.039 131.86C188.427 121.064 174.305 114.829 174.03 114.709C174.199 114.828 179.679 118.699 182.741 123.908C184.26 126.488 185.665 129.616 186.498 133.385Z" fill="#FAAB9E"/>
<path d="M147.049 121.707C148.81 122.444 151.375 120.482 152.485 119.518C152.823 119.224 152.89 118.73 152.649 118.353C152.147 117.569 151.198 116.389 150.091 116.514C149.07 117.461 148.271 118.225 147.919 118.616C146.89 119.765 146.657 120.884 147.049 121.707ZM150.707 172.809C151.953 173.871 155.139 171.838 158.87 169.881C158.674 169.356 158.345 168.815 157.8 168.474C156.603 167.728 151.384 170.844 150.707 172.809Z" fill="#FFE3DE"/>
<path d="M260.728 172.729C258.366 175.491 255.67 177.981 252.7 180.202C246.472 184.867 239.044 188.358 230.977 190.72C230.658 190.812 230.339 190.904 230.018 190.992C228.384 191.452 226.723 191.863 225.043 192.231C224.077 192.44 223.107 192.635 222.128 192.818C217.369 190.022 212.836 187.113 212.11 185.83C210.5 182.982 211.512 180.424 211.512 180.424C210.852 180.609 206.821 176.947 207.199 175.509C207.223 175.429 207.256 175.355 207.304 175.293C207.392 175.17 207.529 175.071 207.72 174.959C207.903 174.849 208.138 174.726 208.428 174.547C208.952 174.224 209.656 173.723 210.571 172.814C210.641 172.746 210.711 172.674 210.782 172.601C212.297 170.844 213.94 168.697 215.535 166.132C217.021 163.74 218.163 161.465 219.043 159.446C219.7 157.634 219.883 156.149 220.057 155.188C220.186 154.462 220.312 154.036 220.628 153.994C220.69 153.985 220.758 153.981 220.837 153.987C221.658 154.044 223.281 154.863 224.559 155.584C224.922 155.789 225.256 155.982 225.538 156.149C226.065 156.464 226.413 156.684 226.413 156.684C226.413 156.684 227.774 155.206 230.213 154.902C230.625 154.854 231.073 154.834 231.549 154.86C233.251 154.966 247.793 164.259 260.728 172.729Z" fill="#E74F5A"/>
<path d="M230.977 190.72C230.658 190.812 230.339 190.905 230.018 190.993C228.384 191.452 226.723 191.864 225.043 192.231C224.077 192.44 223.107 192.636 222.129 192.818C217.369 190.023 212.836 187.113 212.11 185.831C210.5 182.982 211.512 180.425 211.512 180.425C211.512 180.425 212.09 180.238 213.027 179.725C213.294 179.58 213.59 179.408 213.909 179.206C213.912 179.206 213.912 179.204 213.912 179.204C214.074 179.103 214.246 178.993 214.42 178.872C214.822 178.599 215.255 178.285 215.711 177.922C216.393 177.376 217.121 176.723 217.868 175.947C217.917 175.896 217.963 175.85 218.016 175.795C218.016 175.793 218.016 175.793 218.016 175.793C220.846 172.801 223.952 168.015 225.854 160.509V160.507C225.905 160.311 225.951 160.12 226 159.924C226.074 159.611 226.149 159.295 226.217 158.974C226.329 158.474 226.433 157.964 226.532 157.443C226.622 157.905 226.725 158.543 226.8 159.319C227.161 163.032 226.893 169.938 221.783 176.202C219.729 178.72 224.108 184.302 230.977 190.72Z" fill="#E3BCBC"/>
<path d="M220.515 156.668C220.238 156.65 220.161 157.084 220.437 157.152C221.543 157.427 222.559 157.767 223.517 158.402C223.987 158.714 224.424 159.062 224.818 159.465C225.162 159.816 225.442 160.254 225.864 160.513C225.998 160.595 226.15 160.473 226.125 160.328C225.951 159.3 224.698 158.37 223.871 157.839C222.879 157.202 221.698 156.742 220.515 156.668ZM218.358 161.731C218.081 161.714 218.004 162.147 218.28 162.216C219.386 162.491 220.402 162.831 221.36 163.466C221.829 163.778 222.267 164.126 222.661 164.529C223.005 164.88 223.285 165.318 223.707 165.577C223.84 165.659 223.993 165.537 223.968 165.391C223.794 164.363 222.541 163.434 221.713 162.903C220.722 162.265 219.541 161.805 218.358 161.731ZM208.57 175.699C208.434 175.457 208.791 175.199 208.973 175.417C209.703 176.29 210.453 177.055 211.444 177.638C211.93 177.924 212.434 178.165 212.969 178.343C213.436 178.498 213.953 178.559 214.371 178.825C214.503 178.909 214.459 179.099 214.318 179.14C213.315 179.433 211.93 178.712 211.09 178.202C210.083 177.589 209.153 176.729 208.57 175.699ZM215.467 167.755C215.331 167.514 215.688 167.256 215.87 167.473C216.6 168.346 217.35 169.111 218.341 169.694C218.826 169.98 219.331 170.221 219.866 170.399C220.332 170.554 220.849 170.615 221.267 170.881C221.4 170.965 221.356 171.155 221.214 171.197C220.212 171.489 218.827 170.769 217.987 170.258C216.979 169.645 216.05 168.785 215.467 167.755ZM212.137 172.5C212.001 172.258 212.358 172 212.54 172.218C213.27 173.091 214.02 173.856 215.011 174.439C215.496 174.725 216.001 174.966 216.536 175.144C217.003 175.299 217.519 175.36 217.938 175.626C218.07 175.71 218.026 175.9 217.884 175.941C216.882 176.234 215.497 175.513 214.657 175.002C213.65 174.389 212.72 173.53 212.137 172.5Z" fill="#E3BCBC"/>
<path d="M89.6597 180.425C89.6597 180.425 90.6736 182.982 89.0636 185.831C87.9001 187.889 76.9295 194.136 70.9646 197.369C70.8965 197.408 70.8283 197.446 70.7601 197.481C68.7674 197.072 66.8165 196.564 64.9053 195.939C64.7601 195.891 64.6171 195.845 64.472 195.796C60.7484 194.538 57.1853 192.836 53.8114 190.588C48.1105 186.792 42.9419 181.443 38.4199 174.059C51.8165 165.262 67.8327 154.971 69.6252 154.861C70.0981 154.834 70.5468 154.854 70.958 154.903C73.3972 155.206 74.7608 156.684 74.7608 156.684C74.7608 156.684 75.1083 156.464 75.6362 156.15C75.9177 155.982 76.2498 155.789 76.6127 155.584C77.8906 154.863 79.5138 154.045 80.3363 153.988C80.4155 153.981 80.4815 153.985 80.5453 153.994C80.818 154.029 80.9456 154.346 81.06 154.894C81.2557 155.831 81.4009 157.438 82.1289 159.446C83.0108 161.466 84.1523 163.74 85.6391 166.133C87.2139 168.671 88.8415 170.798 90.3437 172.544C90.3591 172.564 90.3767 172.581 90.3921 172.601C91.4104 173.646 92.1824 174.2 92.7454 174.548C92.8972 174.642 93.0336 174.719 93.1567 174.79C93.5086 174.988 93.7396 175.113 93.8693 175.293C93.9155 175.355 93.9507 175.43 93.9727 175.509C94.3532 176.947 90.3195 180.609 89.6597 180.425Z" fill="#E74F5A"/>
<path d="M89.0638 185.831C87.9003 187.889 76.9297 194.136 70.9648 197.369C70.8967 197.408 70.8285 197.446 70.7603 197.481C68.7676 197.072 66.8167 196.564 64.9055 195.939C64.7603 195.891 64.6173 195.845 64.4722 195.796C74.3871 187.375 81.9707 179.367 79.3886 176.202C74.1276 169.753 74 162.62 74.4047 158.996C74.4751 158.364 74.5609 157.839 74.6401 157.443C74.7214 157.872 74.8072 158.292 74.8952 158.705C74.9854 159.119 75.0777 159.524 75.1745 159.922V159.924C75.2207 160.12 75.2669 160.311 75.3175 160.507V160.509C77.2222 168.015 80.3255 172.801 83.1584 175.793C83.1584 175.793 83.1584 175.793 83.1584 175.795C83.209 175.85 83.2552 175.896 83.3036 175.947C83.9502 176.62 84.5836 177.198 85.184 177.695C85.7405 178.155 86.2706 178.544 86.7522 178.872C86.7522 178.872 86.7544 178.872 86.7544 178.874C86.9282 178.993 87.0997 179.103 87.2625 179.204C87.2625 179.204 87.2625 179.206 87.2647 179.206C87.4604 179.329 87.6452 179.441 87.8211 179.543C88.9472 180.194 89.6599 180.425 89.6599 180.425C89.6599 180.425 90.6738 182.982 89.0638 185.831Z" fill="#E3BCBC"/>
<path d="M80.6574 156.668C80.9345 156.65 81.0115 157.084 80.7359 157.152C79.63 157.427 78.6135 157.767 77.6556 158.402C77.1863 158.714 76.7488 159.062 76.3547 159.465C76.0111 159.816 75.7311 160.254 75.3089 160.513C75.1754 160.595 75.0229 160.473 75.0476 160.328C75.2218 159.3 76.475 158.37 77.3022 157.839C78.2941 157.202 79.4748 156.742 80.6574 156.668ZM82.8146 161.731C83.0917 161.714 83.1687 162.147 82.8931 162.216C81.7872 162.491 80.7707 162.831 79.8128 163.466C79.3435 163.778 78.906 164.126 78.5119 164.529C78.1683 164.88 77.8883 165.318 77.466 165.577C77.3325 165.659 77.1801 165.537 77.2048 165.391C77.3789 164.363 78.6322 163.434 79.4594 162.903C80.4511 162.265 81.6317 161.805 82.8146 161.731ZM92.6024 175.699C92.739 175.457 92.3818 175.199 92.1999 175.417C91.4697 176.29 90.7199 177.055 89.7289 177.638C89.2432 177.924 88.7387 178.165 88.2034 178.343C87.7371 178.498 87.2202 178.559 86.8021 178.825C86.6699 178.909 86.7135 179.099 86.8553 179.14C87.858 179.433 89.2428 178.712 90.0828 178.202C91.0901 177.589 92.0198 176.729 92.6024 175.699ZM85.7057 167.755C85.8423 167.514 85.4851 167.256 85.3032 167.473C84.573 168.346 83.8232 169.111 82.8322 169.694C82.3465 169.98 81.842 170.221 81.3067 170.399C80.8404 170.554 80.3235 170.615 79.9054 170.881C79.7732 170.965 79.8168 171.155 79.9586 171.197C80.9613 171.489 82.3461 170.769 83.1861 170.258C84.1934 169.645 85.1231 168.785 85.7057 167.755ZM89.0356 172.5C89.1722 172.258 88.815 172 88.6331 172.218C87.9029 173.091 87.1531 173.856 86.1621 174.439C85.6764 174.725 85.1719 174.966 84.6366 175.144C84.1703 175.299 83.6534 175.36 83.2353 175.626C83.1031 175.71 83.1467 175.9 83.2885 175.941C84.2913 176.234 85.676 175.513 86.516 175.002C87.5233 174.389 88.453 173.53 89.0356 172.5Z" fill="#E3BCBC"/>
<path d="M164.179 136.794L158.223 136.115L158.075 136.098L157.012 141.096C152.779 134.416 149.468 127.886 148.763 121.775C148.717 121.392 148.683 121.011 148.66 120.631L151.954 118.4C153.746 124.881 158.016 130.983 164.179 136.794Z" fill="#FFC32E"/>
<path d="M158.223 136.115L158.075 136.098L157.012 141.096C152.779 134.416 149.468 127.886 148.763 121.775L151.467 120.873C151.467 120.873 151.256 121.809 151.019 124.971C150.821 127.639 156.561 134.179 158.223 136.115Z" fill="#F1F2F2"/>
<path d="M147.319 118.401C145.816 125.309 141.376 131.33 135.095 136.795L141.199 136.098L142.262 141.096C146.071 134.747 148.949 127.968 150.614 120.631L147.319 118.401Z" fill="#F9B723"/>
<path d="M152.277 116.577C155.183 114.856 157.545 113.866 159.029 113.202C162.907 111.464 162.942 110.975 163.755 111.176C166.621 111.885 168.234 118.477 166.455 123.329C166.115 124.256 165.148 126.894 163.079 127.38C162.338 127.554 161.781 127.375 159.029 126.029C154.519 123.825 153.011 122.837 151.602 121.303C150.373 119.966 150.145 119.219 150.252 118.603C150.4 117.749 151.174 117.231 152.277 116.577Z" fill="#FFC32E"/>
<path d="M164.176 111.327C165.075 113.842 165.221 117.355 164.16 120.249C163.821 121.176 162.854 123.814 160.785 124.3C160.044 124.474 159.487 124.295 156.734 122.95C153.19 121.217 151.5 120.236 150.255 119.151C150.348 119.675 150.711 120.333 151.602 121.303C153.011 122.837 154.518 123.825 159.029 126.029C161.781 127.375 162.338 127.553 163.079 127.379C165.148 126.894 166.115 124.256 166.455 123.329C168.144 118.721 166.774 112.544 164.176 111.327Z" fill="#F1F2F2"/>
<path d="M146.17 116.577C143.263 114.856 140.901 113.866 139.418 113.202C135.54 111.464 135.504 110.975 134.692 111.176C131.826 111.885 130.213 118.477 131.992 123.329C132.331 124.256 133.298 126.894 135.367 127.38C136.108 127.554 136.665 127.375 139.418 126.029C143.928 123.825 145.436 122.837 146.845 121.303C148.073 119.966 148.302 119.219 148.195 118.603C148.047 117.749 147.272 117.231 146.17 116.577Z" fill="#FFC32E"/>
<path d="M148.195 118.603C148.047 117.749 147.273 117.231 146.17 116.577C146.025 116.491 145.882 116.409 145.74 116.326C145.743 116.34 145.747 116.353 145.749 116.366C145.856 116.983 145.628 117.729 144.399 119.067C142.99 120.601 141.482 121.588 136.972 123.793C134.22 125.138 133.663 125.317 132.922 125.143C132.874 125.132 132.828 125.118 132.782 125.105C133.333 126.085 134.163 127.097 135.368 127.38C136.109 127.554 136.666 127.375 139.418 126.029C143.929 123.825 145.436 122.837 146.845 121.303C148.074 119.966 148.302 119.22 148.195 118.603Z" fill="#F9B723"/>
<path d="M148.494 119.843V119.211C150.446 119.43 152.8 119.545 155.453 119.369C158.426 119.171 160.99 118.659 163.045 118.103C160.979 118.745 158.414 119.361 155.433 119.686C152.81 119.972 150.463 119.968 148.494 119.843ZM148.108 118.347V117.869C149.409 118.136 151.253 118.349 153.373 117.988C156.891 117.39 159.233 115.542 159.249 115.572C159.265 115.602 156.916 117.497 153.358 118.228C151.231 118.665 149.383 118.54 148.108 118.347Z" fill="#F4AA16"/>
<path d="M149.037 118.347V117.869C147.737 118.136 145.892 118.349 143.772 117.988C140.255 117.39 137.913 115.542 137.897 115.572C137.88 115.602 140.23 117.497 143.787 118.228C145.915 118.665 147.763 118.54 149.037 118.347ZM148.583 120.494V120.972C149.883 120.705 151.728 120.492 153.848 120.853C157.366 121.451 159.707 123.299 159.724 123.269C159.74 123.239 157.39 121.344 153.832 120.613C151.706 120.176 149.858 120.301 148.583 120.494Z" fill="#F4AA16"/>
<path d="M149.512 120.494V120.972C148.211 120.705 146.367 120.492 144.247 120.853C140.729 121.451 138.387 123.299 138.371 123.269C138.354 123.239 140.704 121.344 144.262 120.613C146.39 120.176 148.237 120.301 149.512 120.494ZM149.601 119.843V119.211C147.649 119.43 145.296 119.545 142.642 119.369C139.669 119.171 137.105 118.659 135.05 118.103C137.116 118.745 139.682 119.361 142.662 119.686C145.285 119.972 147.632 119.968 149.601 119.843Z" fill="#F4AA16"/>
<path d="M152.132 119.29C152.132 120.993 150.751 122.374 149.047 122.374C147.344 122.374 145.963 120.993 145.963 119.29C145.963 117.586 147.344 116.205 149.047 116.205C150.75 116.205 152.132 117.586 152.132 119.29Z" fill="#F4AA16"/>
</svg>
