<svg width="24" height="16" viewBox="0 0 24 16" fill="none" xmlns="http://www.w3.org/2000/svg">
<path d="M19 0.000244141H5C3.67441 0.001832 2.40356 0.529126 1.46622 1.46646C0.528882 2.4038 0.00158786 3.67465 0 5.00024L0 11.0002C0.00158786 12.3258 0.528882 13.5967 1.46622 14.534C2.40356 15.4714 3.67441 15.9987 5 16.0002H19C20.3256 15.9987 21.5964 15.4714 22.5338 14.534C23.4711 13.5967 23.9984 12.3258 24 11.0002V5.00024C23.9984 3.67465 23.4711 2.4038 22.5338 1.46646C21.5964 0.529126 20.3256 0.001832 19 0.000244141ZM4 13.0002C3.80222 13.0002 3.60888 12.9416 3.44443 12.8317C3.27998 12.7218 3.15181 12.5657 3.07612 12.3829C3.00043 12.2002 2.98063 11.9991 3.01921 11.8052C3.0578 11.6112 3.15304 11.433 3.29289 11.2931C3.43275 11.1533 3.61093 11.058 3.80491 11.0195C3.99889 10.9809 4.19996 11.0007 4.38268 11.0764C4.56541 11.1521 4.72159 11.2802 4.83147 11.4447C4.94135 11.6091 5 11.8025 5 12.0002C5 12.2655 4.89464 12.5198 4.70711 12.7074C4.51957 12.8949 4.26522 13.0002 4 13.0002ZM4 5.00024C3.80222 5.00024 3.60888 4.9416 3.44443 4.83171C3.27998 4.72183 3.15181 4.56565 3.07612 4.38293C3.00043 4.2002 2.98063 3.99913 3.01921 3.80515C3.0578 3.61117 3.15304 3.43299 3.29289 3.29314C3.43275 3.15329 3.61093 3.05804 3.80491 3.01946C3.99889 2.98087 4.19996 3.00068 4.38268 3.07636C4.56541 3.15205 4.72159 3.28022 4.83147 3.44467C4.94135 3.60912 5 3.80246 5 4.00024C5 4.26546 4.89464 4.51981 4.70711 4.70735C4.51957 4.89489 4.26522 5.00024 4 5.00024ZM12 12.0002C11.2089 12.0002 10.4355 11.7656 9.77772 11.3261C9.11992 10.8866 8.60723 10.2619 8.30448 9.53098C8.00173 8.80007 7.92252 7.99581 8.07686 7.21988C8.2312 6.44396 8.61216 5.73123 9.17157 5.17182C9.73098 4.61241 10.4437 4.23144 11.2196 4.0771C11.9956 3.92276 12.7998 4.00198 13.5307 4.30473C14.2616 4.60748 14.8864 5.12017 15.3259 5.77796C15.7654 6.43576 16 7.20912 16 8.00024C16 9.06111 15.5786 10.0785 14.8284 10.8287C14.0783 11.5788 13.0609 12.0002 12 12.0002ZM20 13.0002C19.8022 13.0002 19.6089 12.9416 19.4444 12.8317C19.28 12.7218 19.1518 12.5657 19.0761 12.3829C19.0004 12.2002 18.9806 11.9991 19.0192 11.8052C19.0578 11.6112 19.153 11.433 19.2929 11.2931C19.4327 11.1533 19.6109 11.058 19.8049 11.0195C19.9989 10.9809 20.2 11.0007 20.3827 11.0764C20.5654 11.1521 20.7216 11.2802 20.8315 11.4447C20.9414 11.6091 21 11.8025 21 12.0002C21 12.2655 20.8946 12.5198 20.7071 12.7074C20.5196 12.8949 20.2652 13.0002 20 13.0002ZM20 5.00024C19.8022 5.00024 19.6089 4.9416 19.4444 4.83171C19.28 4.72183 19.1518 4.56565 19.0761 4.38293C19.0004 4.2002 18.9806 3.99913 19.0192 3.80515C19.0578 3.61117 19.153 3.43299 19.2929 3.29314C19.4327 3.15329 19.6109 3.05804 19.8049 3.01946C19.9989 2.98087 20.2 3.00068 20.3827 3.07636C20.5654 3.15205 20.7216 3.28022 20.8315 3.44467C20.9414 3.60912 21 3.80246 21 4.00024C21 4.26546 20.8946 4.51981 20.7071 4.70735C20.5196 4.89489 20.2652 5.00024 20 5.00024ZM14 8.00024C14 8.39581 13.8827 8.78249 13.6629 9.11138C13.4432 9.44028 13.1308 9.69663 12.7654 9.848C12.3999 9.99938 11.9978 10.039 11.6098 9.96181C11.2219 9.88464 10.8655 9.69416 10.5858 9.41446C10.3061 9.13475 10.1156 8.77839 10.0384 8.39042C9.96126 8.00246 10.0009 7.60033 10.1522 7.23488C10.3036 6.86943 10.56 6.55707 10.8889 6.33731C11.2178 6.11754 11.6044 6.00024 12 6.00024C12.5304 6.00024 13.0391 6.21096 13.4142 6.58603C13.7893 6.9611 14 7.46981 14 8.00024Z" fill="#2BA84A"/>
</svg>
